0
SECTION
2
HEADER
9
$INSUNITS
70
4
9
$ACADVER
1
AC1014
9
$HANDSEED
5
FFFF
0
ENDSEC
0
SECTION
2
TABLES
0
TABLE
2
VPORT
5
8
100
AcDbSymbolTable
0
ENDTAB
0
TABLE
2
LTYPE
5
5
100
AcDbSymbolTable
0
LTYPE
5
14
100
AcDbSymbolTableRecord
100
AcDbLinetypeTableRecord
2
BYBLOCK
70
0
0
LTYPE
5
15
100
AcDbSymbolTableRecord
100
AcDbLinetypeTableRecord
2
BYLAYER
70
0
0
ENDTAB
0
TABLE
2
LAYER
5
2
100
AcDbSymbolTable
70
2
0
LAYER
5
50
100
AcDbSymbolTableRecord
100
AcDbLayerTableRecord
2
0
70
0
6
CONTINUOUS
0
ENDTAB
0
TABLE
2
STYLE
5
3
100
AcDbSymbolTable
70
1
0
STYLE
5
11
100
AcDbSymbolTableRecord
100
AcDbTextStyleTableRecord
2
STANDARD
70
0
0
ENDTAB
0
TABLE
2
VIEW
5
6
100
AcDbSymbolTable
70
0
0
ENDTAB
0
TABLE
2
UCS
5
7
100
AcDbSymbolTable
70
0
0
ENDTAB
0
TABLE
2
APPID
5
9
100
AcDbSymbolTable
70
2
0
APPID
5
12
100
AcDbSymbolTableRecord
100
AcDbRegAppTableRecord
2
ACAD
70
0
0
ENDTAB
0
TABLE
2
DIMSTYLE
5
A
100
AcDbSymbolTable
70
1
0
ENDTAB
0
TABLE
2
BLOCK_RECORD
5
1
100
AcDbSymbolTable
70
1
0
BLOCK_RECORD
5
1F
100
AcDbSymbolTableRecord
100
AcDbBlockTableRecord
2
*MODEL_SPACE
0
BLOCK_RECORD
5
1B
100
AcDbSymbolTableRecord
100
AcDbBlockTableRecord
2
*PAPER_SPACE
0
ENDTAB
0
ENDSEC
0
SECTION
2
BLOCKS
0
BLOCK
5
20
100
AcDbEntity
100
AcDbBlockBegin
2
*MODEL_SPACE
0
ENDBLK
5
21
100
AcDbEntity
100
AcDbBlockEnd
0
BLOCK
5
1C
100
AcDbEntity
100
AcDbBlockBegin
2
*PAPER_SPACE
0
ENDBLK
5
1D
100
AcDbEntity
100
AcDbBlockEnd
0
ENDSEC
0
SECTION
2
ENTITIES
0
LWPOLYLINE
5
100
100
AcDbEntity
8
0
100
AcDbPolyline
90
164
70
1
43
0.0
10
-30.000000000000007
20
-100
10
-25.000000000000007
20
-100
10
-25.000000000000007
20
-103.99999999999999
10
-20.000000000000007
20
-104
10
-20.000000000000007
20
-100
10
-15.000000000000009
20
-100
10
-15.000000000000009
20
-104
10
-10.000000000000009
20
-104
10
-10.000000000000009
20
-100
10
-5.0000000000000089
20
-100
10
-5.0000000000000089
20
-104
10
3.9999999999999902
20
-104
10
3.9999999999999911
20
-100
10
-8.8817841970012523e-15
20
-100
10
0
20
-95
10
3.9999999999999991
20
-95
10
3.9999999999999991
20
-90
10
0
20
-90
10
0
20
-85
10
3.9999999999999991
20
-85
10
3.9999999999999991
20
-80
10
0
20
-80
10
0
20
-75
10
3.9999999999999991
20
-75
10
3.9999999999999991
20
-70
10
0
20
-70
10
0
20
-65
10
3.9999999999999991
20
-65
10
3.9999999999999991
20
-60
10
0
20
-60
10
0
20
-55
10
3.9999999999999991
20
-55
10
3.9999999999999991
20
-50
10
0
20
-50
10
0
20
-45
10
3.9999999999999991
20
-45
10
3.9999999999999991
20
-40
10
0
20
-40
10
0
20
-35
10
3.9999999999999991
20
-35
10
3.9999999999999991
20
-30
10
0
20
-30
10
0
20
-25
10
3.9999999999999991
20
-25
10
3.9999999999999991
20
-20
10
0
20
-20
10
0
20
-15
10
3.9999999999999991
20
-15
10
3.9999999999999991
20
-10
10
0
20
-10
10
0
20
-5
10
3.9999999999999991
20
-5
10
3.9999999999999991
20
4
10
-1.1102230246251565e-15
20
4
10
-1.1102230246251565e-15
20
0
10
-5
20
1.7763568394002505e-14
10
-5
20
4.0000000000000213
10
-10
20
4.0000000000000213
10
-10
20
1.7763568394002505e-14
10
-15
20
1.7763568394002505e-14
10
-15
20
4.0000000000000213
10
-20
20
4.0000000000000213
10
-20
20
1.7763568394002505e-14
10
-25
20
1.7763568394002505e-14
10
-25
20
4.0000000000000213
10
-30
20
4.0000000000000213
10
-30
20
1.7763568394002505e-14
10
-35
20
1.7763568394002505e-14
10
-35
20
4.0000000000000213
10
-40
20
4.0000000000000213
10
-40
20
1.7763568394002505e-14
10
-45.000000000000007
20
1.7763568394002505e-14
10
-45.000000000000007
20
4.0000000000000213
10
-50.000000000000007
20
4.0000000000000213
10
-50.000000000000007
20
1.7763568394002505e-14
10
-55.000000000000007
20
1.7763568394002505e-14
10
-55.000000000000007
20
4.0000000000000036
10
-60.000000000000007
20
4.0000000000000036
10
-60.000000000000007
20
0
10
-65.000000000000014
20
0
10
-65.000000000000014
20
4.0000000000000036
10
-70.000000000000014
20
4.0000000000000036
10
-70.000000000000014
20
0
10
-75.000000000000014
20
0
10
-75.000000000000014
20
4.0000000000000036
10
-80.000000000000014
20
4.0000000000000036
10
-80.000000000000014
20
0
10
-85.000000000000014
20
0
10
-85.000000000000014
20
4.0000000000000036
10
-90.000000000000014
20
4.0000000000000036
10
-90.000000000000014
20
0
10
-95.000000000000014
20
0
10
-95.000000000000014
20
4.0000000000000036
10
-104.00000000000003
20
4.0000000000000036
10
-104.00000000000003
20
3.3306690738754696e-15
10
-100.00000000000001
20
3.3306690738754696e-15
10
-99.999999999999986
20
-5
10
-103.99999999999999
20
-5
10
-103.99999999999999
20
-10
10
-99.999999999999986
20
-10
10
-99.999999999999986
20
-15
10
-103.99999999999999
20
-15
10
-103.99999999999999
20
-20
10
-99.999999999999986
20
-20
10
-99.999999999999986
20
-25
10
-103.99999999999999
20
-25
10
-103.99999999999999
20
-30
10
-100
20
-30
10
-100
20
-35
10
-103.99999999999999
20
-35
10
-103.99999999999999
20
-40
10
-100
20
-40
10
-100
20
-45
10
-103.99999999999999
20
-45
10
-103.99999999999999
20
-50
10
-100
20
-50
10
-100
20
-55
10
-103.99999999999999
20
-55
10
-104
20
-60
10
-100
20
-60
10
-100
20
-65
10
-104
20
-65
10
-104
20
-70
10
-100
20
-70
10
-100
20
-75
10
-104
20
-75
10
-104
20
-80
10
-100
20
-80
10
-100
20
-85
10
-104
20
-85
10
-104
20
-90
10
-100
20
-90
10
-100
20
-95
10
-104
20
-95
10
-104
20
-104
10
-100
20
-104
10
-100
20
-100
10
-95
20
-99.999999999999986
10
-95
20
-103.99999999999999
10
-90
20
-103.99999999999999
10
-90
20
-99.999999999999986
10
-85
20
-99.999999999999986
10
-85
20
-103.99999999999999
10
-80
20
-103.99999999999999
10
-80
20
-99.999999999999986
10
-75.000000000000014
20
-99.999999999999986
10
-75.000000000000014
20
-103.99999999999999
10
-70.000000000000014
20
-103.99999999999999
10
-70.000000000000014
20
-99.999999999999986
10
-65.000000000000014
20
-99.999999999999986
10
-65.000000000000014
20
-103.99999999999999
10
-60.000000000000007
20
-103.99999999999999
10
-60.000000000000007
20
-99.999999999999986
10
-55.000000000000007
20
-99.999999999999986
10
-55.000000000000007
20
-103.99999999999999
10
-50.000000000000007
20
-103.99999999999999
10
-50.000000000000007
20
-99.999999999999986
10
-45.000000000000007
20
-99.999999999999986
10
-45.000000000000007
20
-103.99999999999999
10
-40.000000000000007
20
-103.99999999999999
10
-40.000000000000007
20
-100
10
-35.000000000000007
20
-100
10
-35.000000000000007
20
-103.99999999999999
10
-30.000000000000007
20
-103.99999999999999
0
LWPOLYLINE
5
101
100
AcDbEntity
8
0
100
AcDbPolyline
90
164
70
1
43
0.0
10
-100.00000000000001
20
3.3306690738754696e-15
10
-104.00000000000003
20
3.3306690738754696e-15
10
-104.00000000000003
20
4.0000000000000036
10
-95.000000000000014
20
4.0000000000000027
10
-95.000000000000014
20
1.1102230246251565e-15
10
-90.000000000000014
20
0
10
-90.000000000000014
20
4.0000000000000036
10
-85.000000000000014
20
4.0000000000000044
10
-85.000000000000014
20
3.3306690738754696e-15
10
-80.000000000000014
20
0
10
-80.000000000000014
20
4.0000000000000053
10
-75.000000000000014
20
4.0000000000000071
10
-75.000000000000014
20
5.5511151231257827e-15
10
-70.000000000000014
20
0
10
-70.000000000000014
20
4.000000000000008
10
-65.000000000000014
20
4.0000000000000089
10
-65.000000000000014
20
7.7715611723760958e-15
10
-60.000000000000007
20
0
10
-60.000000000000007
20
4.0000000000000107
10
-55.000000000000007
20
4.0000000000000115
10
-55.000000000000007
20
9.9920072216264089e-15
10
-50.000000000000007
20
0
10
-50.000000000000007
20
4.0000000000000124
10
-45.000000000000007
20
4.0000000000000133
10
-45.000000000000007
20
1.2212453270876722e-14
10
-40
20
0
10
-40
20
4.0000000000000142
10
-35
20
4.000000000000016
10
-35
20
1.4432899320127035e-14
10
-30
20
0
10
-30
20
4.0000000000000169
10
-25
20
4.0000000000000178
10
-25
20
1.6653345369377348e-14
10
-20
20
0
10
-20
20
4.0000000000000195
10
-15
20
4.0000000000000204
10
-15
20
1.8873791418627661e-14
10
-10
20
0
10
-10
20
4.0000000000000213
10
-5
20
4.0000000000000222
10
-5
20
0
10
-1.1102230246251565e-15
20
0
10
-1.1102230246251565e-15
20
4
10
3.9999999999999991
20
4
10
4
20
-5
10
0
20
-5
10
0
20
-10
10
4
20
-10
10
4
20
-15
10
0
20
-15
10
0
20
-20
10
4
20
-20
10
4
20
-25
10
0
20
-25
10
0
20
-30
10
4
20
-30
10
4
20
-35
10
0
20
-35
10
0
20
-40
10
4
20
-40
10
4
20
-45
10
0
20
-45
10
0
20
-50
10
4
20
-50
10
4
20
-55
10
0
20
-55
10
0
20
-60
10
4
20
-60
10
4
20
-65
10
0
20
-65
10
0
20
-70
10
4
20
-70
10
4
20
-75
10
0
20
-75
10
0
20
-80
10
4
20
-80
10
4
20
-85
10
0
20
-85
10
0
20
-90
10
4
20
-90
10
4
20
-95
10
-7.7715611723760958e-15
20
-95
10
-8.8817841970012523e-15
20
-100
10
3.9999999999999911
20
-100
10
3.9999999999999902
20
-104
10
-5.0000000000000098
20
-104
10
-5.0000000000000089
20
-100
10
-10
20
-100
10
-10.000000000000009
20
-104
10
-15.000000000000009
20
-104
10
-15.000000000000009
20
-100
10
-20.000000000000007
20
-100
10
-20.000000000000007
20
-104
10
-25.000000000000007
20
-103.99999999999999
10
-25.000000000000007
20
-100
10
-30.000000000000007
20
-100
10
-30.000000000000007
20
-103.99999999999999
10
-35.000000000000007
20
-103.99999999999999
10
-35.000000000000007
20
-100
10
-40.000000000000007
20
-100
10
-40.000000000000007
20
-103.99999999999999
10
-45.000000000000007
20
-103.99999999999999
10
-45.000000000000007
20
-99.999999999999986
10
-50.000000000000007
20
-100
10
-50.000000000000007
20
-103.99999999999999
10
-55.000000000000007
20
-103.99999999999999
10
-55.000000000000007
20
-99.999999999999986
10
-60.000000000000007
20
-100
10
-60.000000000000007
20
-103.99999999999999
10
-65.000000000000014
20
-103.99999999999999
10
-65.000000000000014
20
-99.999999999999986
10
-70.000000000000014
20
-100
10
-70.000000000000014
20
-103.99999999999999
10
-75.000000000000014
20
-103.99999999999999
10
-75.000000000000014
20
-99.999999999999986
10
-80
20
-100
10
-80
20
-103.99999999999999
10
-85
20
-103.99999999999999
10
-85
20
-99.999999999999986
10
-90
20
-100
10
-90
20
-103.99999999999999
10
-95
20
-103.99999999999999
10
-95
20
-100
10
-100
20
-100
10
-100
20
-104
10
-104
20
-104
10
-104
20
-95
10
-100
20
-95
10
-100
20
-90
10
-104
20
-90
10
-104
20
-85
10
-100
20
-85
10
-100
20
-80
10
-104
20
-80
10
-104
20
-75
10
-100
20
-75
10
-100
20
-70
10
-104
20
-70
10
-104
20
-65
10
-100
20
-65
10
-100
20
-60
10
-104
20
-60
10
-103.99999999999999
20
-55
10
-100
20
-55
10
-100
20
-50
10
-103.99999999999999
20
-50
10
-103.99999999999999
20
-45
10
-100
20
-45
10
-100
20
-40
10
-103.99999999999999
20
-40
10
-103.99999999999999
20
-35
10
-100
20
-35
10
-100
20
-30
10
-103.99999999999999
20
-30
10
-103.99999999999999
20
-25
10
-99.999999999999986
20
-25
10
-100
20
-20
10
-103.99999999999999
20
-20
10
-103.99999999999999
20
-15
10
-99.999999999999986
20
-15
10
-100
20
-10
10
-103.99999999999999
20
-10
10
-103.99999999999999
20
-5
10
-100.00000000000001
20
-5
0
ENDSEC
0
SECTION
2
OBJECTS
0
DICTIONARY
5
C
100
AcDbDictionary
3
ACAD_GROUP
350
D
3
ACAD_MLINESTYLE
350
17
0
DICTIONARY
5
D
100
AcDbDictionary
0
DICTIONARY
5
1A
330
C
100
AcDbDictionary
0
DICTIONARY
5
17
100
AcDbDictionary
0
ENDSEC
0
EOF
