0
SECTION
2
HEADER
9
$INSUNITS
70
4
9
$ACADVER
1
AC1014
9
$HANDSEED
5
FFFF
0
ENDSEC
0
SECTION
2
TABLES
0
TABLE
2
VPORT
5
8
100
AcDbSymbolTable
0
ENDTAB
0
TABLE
2
LTYPE
5
5
100
AcDbSymbolTable
0
LTYPE
5
14
100
AcDbSymbolTableRecord
100
AcDbLinetypeTableRecord
2
BYBLOCK
70
0
0
LTYPE
5
15
100
AcDbSymbolTableRecord
100
AcDbLinetypeTableRecord
2
BYLAYER
70
0
0
ENDTAB
0
TABLE
2
LAYER
5
2
100
AcDbSymbolTable
70
2
0
LAYER
5
50
100
AcDbSymbolTableRecord
100
AcDbLayerTableRecord
2
0
70
0
6
CONTINUOUS
0
ENDTAB
0
TABLE
2
STYLE
5
3
100
AcDbSymbolTable
70
1
0
STYLE
5
11
100
AcDbSymbolTableRecord
100
AcDbTextStyleTableRecord
2
STANDARD
70
0
0
ENDTAB
0
TABLE
2
VIEW
5
6
100
AcDbSymbolTable
70
0
0
ENDTAB
0
TABLE
2
UCS
5
7
100
AcDbSymbolTable
70
0
0
ENDTAB
0
TABLE
2
APPID
5
9
100
AcDbSymbolTable
70
2
0
APPID
5
12
100
AcDbSymbolTableRecord
100
AcDbRegAppTableRecord
2
ACAD
70
0
0
ENDTAB
0
TABLE
2
DIMSTYLE
5
A
100
AcDbSymbolTable
70
1
0
ENDTAB
0
TABLE
2
BLOCK_RECORD
5
1
100
AcDbSymbolTable
70
1
0
BLOCK_RECORD
5
1F
100
AcDbSymbolTableRecord
100
AcDbBlockTableRecord
2
*MODEL_SPACE
0
BLOCK_RECORD
5
1B
100
AcDbSymbolTableRecord
100
AcDbBlockTableRecord
2
*PAPER_SPACE
0
ENDTAB
0
ENDSEC
0
SECTION
2
BLOCKS
0
BLOCK
5
20
100
AcDbEntity
100
AcDbBlockBegin
2
*MODEL_SPACE
0
ENDBLK
5
21
100
AcDbEntity
100
AcDbBlockEnd
0
BLOCK
5
1C
100
AcDbEntity
100
AcDbBlockBegin
2
*PAPER_SPACE
0
ENDBLK
5
1D
100
AcDbEntity
100
AcDbBlockEnd
0
ENDSEC
0
SECTION
2
ENTITIES
0
LWPOLYLINE
5
100
100
AcDbEntity
8
0
100
AcDbPolyline
90
156
70
1
43
0.0
10
-30.000000000000007
20
-220
10
-25.000000000000007
20
-220
10
-25.000000000000007
20
-224
10
-20.000000000000007
20
-224
10
-20.000000000000007
20
-220
10
-15.000000000000009
20
-220
10
-15.000000000000009
20
-224
10
-10.000000000000009
20
-224
10
-10.000000000000009
20
-220
10
-5.0000000000000089
20
-220
10
-5.0000000000000089
20
-224
10
-8.8817841970012523e-15
20
-224
10
0
20
-215
10
3.9999999999999991
20
-215
10
3.9999999999999991
20
-210
10
0
20
-210
10
0
20
-205
10
3.9999999999999991
20
-205
10
3.9999999999999991
20
-200
10
0
20
-200
10
0
20
-195
10
3.9999999999999991
20
-195
10
3.9999999999999991
20
-190
10
0
20
-190
10
0
20
-185
10
3.9999999999999991
20
-185
10
3.9999999999999991
20
-180
10
0
20
-180
10
0
20
-175
10
3.9999999999999991
20
-175
10
3.9999999999999991
20
-170
10
0
20
-170
10
0
20
-165
10
3.9999999999999991
20
-165
10
3.9999999999999991
20
-160
10
0
20
-160
10
0
20
-155
10
3.9999999999999991
20
-155
10
3.9999999999999991
20
-150
10
0
20
-150
10
0
20
-145
10
3.9999999999999991
20
-145
10
3.9999999999999991
20
-140
10
0
20
-140
10
0
20
-135
10
3.9999999999999991
20
-135
10
3.9999999999999991
20
-130
10
0
20
-130
10
0
20
-125
10
3.9999999999999991
20
-125
10
3.9999999999999991
20
-120
10
-5
20
-119.99999999999999
10
-5
20
-115.99999999999997
10
-10
20
-115.99999999999997
10
-10
20
-119.99999999999999
10
-15
20
-119.99999999999999
10
-15
20
-115.99999999999997
10
-20
20
-115.99999999999997
10
-20
20
-119.99999999999999
10
-25
20
-119.99999999999999
10
-25
20
-115.99999999999997
10
-30
20
-115.99999999999997
10
-30
20
-119.99999999999999
10
-35
20
-119.99999999999999
10
-35
20
-115.99999999999997
10
-40
20
-115.99999999999997
10
-40
20
-119.99999999999999
10
-45.000000000000007
20
-119.99999999999999
10
-45.000000000000007
20
-115.99999999999997
10
-50.000000000000007
20
-115.99999999999997
10
-50.000000000000007
20
-119.99999999999999
10
-55.000000000000007
20
-119.99999999999999
10
-55.000000000000007
20
-116
10
-60.000000000000007
20
-116
10
-60.000000000000007
20
-120
10
-65.000000000000014
20
-120
10
-65.000000000000014
20
-116
10
-70.000000000000014
20
-116
10
-70.000000000000014
20
-120
10
-75.000000000000014
20
-120
10
-75.000000000000014
20
-116
10
-80.000000000000014
20
-116
10
-80.000000000000014
20
-120
10
-85.000000000000014
20
-120
10
-85.000000000000014
20
-116
10
-90.000000000000014
20
-116
10
-90.000000000000014
20
-120
10
-95.000000000000014
20
-120
10
-95.000000000000014
20
-116
10
-100.00000000000001
20
-116
10
-99.999999999999986
20
-125
10
-103.99999999999999
20
-125
10
-103.99999999999999
20
-130
10
-99.999999999999986
20
-130
10
-99.999999999999986
20
-135
10
-103.99999999999999
20
-135
10
-103.99999999999999
20
-140
10
-99.999999999999986
20
-140
10
-99.999999999999986
20
-145
10
-103.99999999999999
20
-145
10
-103.99999999999999
20
-150
10
-100
20
-150
10
-100
20
-155
10
-103.99999999999999
20
-155
10
-103.99999999999999
20
-160
10
-100
20
-160
10
-100
20
-165
10
-103.99999999999999
20
-165
10
-103.99999999999999
20
-170
10
-100
20
-170
10
-100
20
-175
10
-103.99999999999999
20
-175
10
-104
20
-180
10
-100
20
-180
10
-100
20
-185
10
-104
20
-185
10
-104
20
-190
10
-100
20
-190
10
-100
20
-195
10
-104
20
-195
10
-104
20
-200
10
-100
20
-200
10
-100
20
-205
10
-104
20
-205
10
-104
20
-210
10
-100
20
-210
10
-100
20
-215
10
-104
20
-215
10
-104
20
-220
10
-95
20
-220
10
-95
20
-224
10
-90
20
-224
10
-90
20
-220
10
-85
20
-220
10
-85
20
-224
10
-80
20
-224
10
-80
20
-220
10
-75.000000000000014
20
-220
10
-75.000000000000014
20
-224
10
-70.000000000000014
20
-224
10
-70.000000000000014
20
-220
10
-65.000000000000014
20
-220
10
-65.000000000000014
20
-224
10
-60.000000000000007
20
-224
10
-60.000000000000007
20
-220
10
-55.000000000000007
20
-220
10
-55.000000000000007
20
-224
10
-50.000000000000007
20
-224
10
-50.000000000000007
20
-220
10
-45.000000000000007
20
-220
10
-45.000000000000007
20
-224
10
-40.000000000000007
20
-224
10
-40.000000000000007
20
-220
10
-35.000000000000007
20
-220
10
-35.000000000000007
20
-224
10
-30.000000000000007
20
-224
0
LWPOLYLINE
5
101
100
AcDbEntity
8
0
100
AcDbPolyline
90
156
70
1
43
0.0
10
-30.000000000000007
20
-220
10
-30.000000000000007
20
-224
10
-35.000000000000007
20
-224
10
-35.000000000000007
20
-220
10
-40.000000000000007
20
-220
10
-40.000000000000007
20
-224
10
-45.000000000000007
20
-224
10
-45.000000000000007
20
-220
10
-50.000000000000007
20
-220
10
-50.000000000000007
20
-224
10
-55.000000000000007
20
-224
10
-55.000000000000007
20
-220
10
-60.000000000000007
20
-220
10
-60.000000000000007
20
-224
10
-65.000000000000014
20
-224
10
-65.000000000000014
20
-220
10
-70.000000000000014
20
-220
10
-70.000000000000014
20
-224
10
-75.000000000000014
20
-224
10
-75.000000000000014
20
-220
10
-80
20
-220
10
-80
20
-224
10
-85
20
-224
10
-85
20
-220
10
-90
20
-220
10
-90
20
-224
10
-95
20
-224
10
-95
20
-220
10
-104
20
-220
10
-104
20
-215
10
-100
20
-215
10
-100
20
-210
10
-104
20
-210
10
-104
20
-205
10
-100
20
-205
10
-100
20
-200
10
-104
20
-200
10
-104
20
-195
10
-100
20
-195
10
-100
20
-190
10
-104
20
-190
10
-104
20
-185
10
-100
20
-185
10
-100
20
-180
10
-104
20
-180
10
-103.99999999999999
20
-175
10
-100
20
-175
10
-100
20
-170
10
-103.99999999999999
20
-170
10
-103.99999999999999
20
-165
10
-100
20
-165
10
-100
20
-160
10
-103.99999999999999
20
-160
10
-103.99999999999999
20
-155
10
-100
20
-155
10
-100
20
-150
10
-103.99999999999999
20
-150
10
-103.99999999999999
20
-145
10
-99.999999999999986
20
-145
10
-100
20
-140
10
-103.99999999999999
20
-140
10
-103.99999999999999
20
-135
10
-99.999999999999986
20
-135
10
-100
20
-130
10
-103.99999999999999
20
-130
10
-103.99999999999999
20
-125
10
-99.999999999999986
20
-125
10
-100.00000000000001
20
-116
10
-95.000000000000014
20
-116
10
-95.000000000000014
20
-120
10
-90.000000000000014
20
-120
10
-90.000000000000014
20
-116
10
-85.000000000000014
20
-116
10
-85.000000000000014
20
-120
10
-80.000000000000014
20
-120
10
-80.000000000000014
20
-116
10
-75.000000000000014
20
-116
10
-75.000000000000014
20
-120
10
-70.000000000000014
20
-120
10
-70.000000000000014
20
-116
10
-65.000000000000014
20
-116
10
-65.000000000000014
20
-120
10
-60.000000000000007
20
-120
10
-60.000000000000007
20
-116
10
-55.000000000000007
20
-116
10
-55.000000000000007
20
-120
10
-50.000000000000007
20
-120
10
-50.000000000000007
20
-115.99999999999997
10
-45.000000000000007
20
-115.99999999999997
10
-45.000000000000007
20
-119.99999999999999
10
-40
20
-120
10
-40
20
-115.99999999999997
10
-35
20
-115.99999999999997
10
-35
20
-119.99999999999999
10
-30
20
-120
10
-30
20
-115.99999999999997
10
-25
20
-115.99999999999997
10
-25
20
-119.99999999999999
10
-20
20
-120
10
-20
20
-115.99999999999997
10
-15
20
-115.99999999999997
10
-15
20
-119.99999999999999
10
-10
20
-120
10
-10
20
-115.99999999999997
10
-5
20
-115.99999999999997
10
-5
20
-119.99999999999999
10
4
20
-120
10
4
20
-125
10
0
20
-125
10
0
20
-130
10
4
20
-130
10
4
20
-135
10
0
20
-135
10
0
20
-140
10
4
20
-140
10
4
20
-145
10
0
20
-145
10
0
20
-150
10
4
20
-150
10
4
20
-155
10
0
20
-155
10
0
20
-160
10
4
20
-160
10
4
20
-165
10
0
20
-165
10
0
20
-170
10
4
20
-170
10
4
20
-175
10
0
20
-175
10
0
20
-180
10
4
20
-180
10
4
20
-185
10
0
20
-185
10
0
20
-190
10
4
20
-190
10
4
20
-195
10
0
20
-195
10
0
20
-200
10
4
20
-200
10
4
20
-205
10
0
20
-205
10
0
20
-210
10
4
20
-210
10
4
20
-215
10
0
20
-215
10
-9.7699626167013776e-15
20
-224
10
-5.0000000000000098
20
-224
10
-5.0000000000000089
20
-220
10
-10
20
-220
10
-10.000000000000009
20
-224
10
-15.000000000000009
20
-224
10
-15.000000000000009
20
-220
10
-20.000000000000007
20
-220
10
-20.000000000000007
20
-224
10
-25.000000000000007
20
-224
10
-25.000000000000007
20
-220
0
ENDSEC
0
SECTION
2
OBJECTS
0
DICTIONARY
5
C
100
AcDbDictionary
3
ACAD_GROUP
350
D
3
ACAD_MLINESTYLE
350
17
0
DICTIONARY
5
D
100
AcDbDictionary
0
DICTIONARY
5
1A
330
C
100
AcDbDictionary
0
DICTIONARY
5
17
100
AcDbDictionary
0
ENDSEC
0
EOF
