0
SECTION
2
HEADER
9
$INSUNITS
70
4
9
$ACADVER
1
AC1014
9
$HANDSEED
5
FFFF
0
ENDSEC
0
SECTION
2
TABLES
0
TABLE
2
VPORT
5
8
100
AcDbSymbolTable
0
ENDTAB
0
TABLE
2
LTYPE
5
5
100
AcDbSymbolTable
0
LTYPE
5
14
100
AcDbSymbolTableRecord
100
AcDbLinetypeTableRecord
2
BYBLOCK
70
0
0
LTYPE
5
15
100
AcDbSymbolTableRecord
100
AcDbLinetypeTableRecord
2
BYLAYER
70
0
0
ENDTAB
0
TABLE
2
LAYER
5
2
100
AcDbSymbolTable
70
2
0
LAYER
5
50
100
AcDbSymbolTableRecord
100
AcDbLayerTableRecord
2
0
70
0
6
CONTINUOUS
0
ENDTAB
0
TABLE
2
STYLE
5
3
100
AcDbSymbolTable
70
1
0
STYLE
5
11
100
AcDbSymbolTableRecord
100
AcDbTextStyleTableRecord
2
STANDARD
70
0
0
ENDTAB
0
TABLE
2
VIEW
5
6
100
AcDbSymbolTable
70
0
0
ENDTAB
0
TABLE
2
UCS
5
7
100
AcDbSymbolTable
70
0
0
ENDTAB
0
TABLE
2
APPID
5
9
100
AcDbSymbolTable
70
2
0
APPID
5
12
100
AcDbSymbolTableRecord
100
AcDbRegAppTableRecord
2
ACAD
70
0
0
ENDTAB
0
TABLE
2
DIMSTYLE
5
A
100
AcDbSymbolTable
70
1
0
ENDTAB
0
TABLE
2
BLOCK_RECORD
5
1
100
AcDbSymbolTable
70
1
0
BLOCK_RECORD
5
1F
100
AcDbSymbolTableRecord
100
AcDbBlockTableRecord
2
*MODEL_SPACE
0
BLOCK_RECORD
5
1B
100
AcDbSymbolTableRecord
100
AcDbBlockTableRecord
2
*PAPER_SPACE
0
ENDTAB
0
ENDSEC
0
SECTION
2
BLOCKS
0
BLOCK
5
20
100
AcDbEntity
100
AcDbBlockBegin
2
*MODEL_SPACE
0
ENDBLK
5
21
100
AcDbEntity
100
AcDbBlockEnd
0
BLOCK
5
1C
100
AcDbEntity
100
AcDbBlockBegin
2
*PAPER_SPACE
0
ENDBLK
5
1D
100
AcDbEntity
100
AcDbBlockEnd
0
ENDSEC
0
SECTION
2
ENTITIES
0
LWPOLYLINE
5
100
100
AcDbEntity
8
0
100
AcDbPolyline
90
156
70
1
43
0.0
10
236.00000000000009
20
-54.999999999999986
10
240.00000000000006
20
-54.999999999999986
10
240.00000000000006
20
-59.999999999999986
10
236.00000000000009
20
-59.999999999999986
10
236.00000000000009
20
-64.999999999999986
10
240.00000000000006
20
-64.999999999999986
10
240.00000000000006
20
-69.999999999999986
10
236.00000000000009
20
-69.999999999999986
10
236.00000000000009
20
-74.999999999999986
10
240.00000000000006
20
-74.999999999999986
10
240.00000000000006
20
-79.999999999999986
10
236.00000000000009
20
-79.999999999999986
10
236.00000000000009
20
-84.999999999999986
10
240.00000000000006
20
-84.999999999999986
10
240.00000000000006
20
-89.999999999999986
10
236.00000000000009
20
-89.999999999999986
10
236.00000000000009
20
-94.999999999999986
10
240.00000000000006
20
-94.999999999999986
10
240.00000000000006
20
-104
10
245.00000000000006
20
-104.00000000000003
10
245.00000000000006
20
-99.999999999999986
10
250.00000000000006
20
-99.999999999999986
10
250.00000000000006
20
-103.99999999999997
10
255.00000000000006
20
-104
10
255.00000000000006
20
-99.999999999999986
10
260.00000000000006
20
-100
10
260.00000000000006
20
-104
10
265.00000000000006
20
-103.99999999999999
10
265.00000000000006
20
-100
10
270.00000000000006
20
-99.999999999999986
10
270.00000000000006
20
-104
10
275.00000000000006
20
-103.99999999999997
10
275.00000000000006
20
-100
10
280.00000000000006
20
-99.999999999999986
10
280.00000000000006
20
-103.99999999999999
10
285.00000000000006
20
-103.99999999999997
10
285.00000000000006
20
-99.999999999999986
10
290.00000000000006
20
-100
10
290.00000000000006
20
-103.99999999999999
10
295.00000000000006
20
-103.99999999999997
10
295.00000000000006
20
-99.999999999999986
10
300.00000000000006
20
-99.999999999999986
10
300.00000000000006
20
-103.99999999999999
10
305.00000000000006
20
-103.99999999999997
10
305.00000000000011
20
-100
10
310.00000000000006
20
-100
10
310.00000000000006
20
-103.99999999999997
10
315.00000000000006
20
-103.99999999999999
10
315.00000000000006
20
-100
10
320.00000000000006
20
-100
10
320.00000000000006
20
-103.99999999999999
10
325.00000000000006
20
-103.99999999999997
10
325.00000000000006
20
-99.999999999999986
10
330.00000000000006
20
-99.999999999999986
10
330.00000000000006
20
-103.99999999999999
10
335.00000000000006
20
-103.99999999999999
10
335.00000000000006
20
-100.00000000000001
10
344.00000000000011
20
-99.999999999999986
10
344.00000000000011
20
-94.999999999999972
10
340.00000000000006
20
-94.999999999999972
10
340.00000000000006
20
-89.999999999999986
10
344.00000000000011
20
-89.999999999999986
10
344.00000000000011
20
-84.999999999999972
10
340.00000000000006
20
-84.999999999999972
10
340.00000000000006
20
-79.999999999999986
10
344.00000000000011
20
-79.999999999999986
10
344.00000000000006
20
-74.999999999999972
10
340.00000000000006
20
-74.999999999999972
10
340.00000000000006
20
-69.999999999999986
10
344.00000000000011
20
-69.999999999999972
10
344.00000000000011
20
-64.999999999999972
10
340.00000000000006
20
-64.999999999999972
10
340.00000000000006
20
-59.999999999999972
10
344.00000000000006
20
-59.999999999999972
10
344.00000000000011
20
-54.999999999999972
10
340.00000000000006
20
-54.999999999999972
10
340.00000000000006
20
-49.999999999999972
10
344.00000000000011
20
-49.999999999999972
10
344.00000000000011
20
-44.999999999999972
10
340.00000000000006
20
-44.999999999999972
10
340.00000000000006
20
-39.999999999999972
10
344.00000000000011
20
-39.999999999999972
10
344.00000000000011
20
-34.999999999999972
10
340.00000000000006
20
-34.999999999999972
10
340.00000000000006
20
-29.999999999999972
10
344.00000000000011
20
-29.999999999999972
10
344.00000000000006
20
-24.999999999999972
10
340.00000000000006
20
-24.999999999999964
10
340.00000000000006
20
-19.999999999999982
10
344.00000000000006
20
-19.999999999999975
10
344.00000000000011
20
-14.999999999999979
10
340.00000000000006
20
-14.999999999999968
10
340.00000000000006
20
-9.9999999999999751
10
344.00000000000006
20
-9.9999999999999822
10
344.00000000000011
20
-4.9999999999999734
10
340.00000000000006
20
-4.9999999999999725
10
340.00000000000006
20
4.0000000000000266
10
335.00000000000006
20
4.0000000000000115
10
335.00000000000006
20
2.6645352591003757e-14
10
330.00000000000006
20
1.7763568394002584e-14
10
330.00000000000006
20
4.0000000000000266
10
325.00000000000006
20
4.0000000000000133
10
325.00000000000006
20
2.6645352591003757e-14
10
320.00000000000006
20
2.6645352591003836e-14
10
320.00000000000006
20
4.0000000000000266
10
315.00000000000006
20
4.000000000000016
10
315.00000000000006
20
2.6645352591003757e-14
10
310.00000000000006
20
2.6645352591003836e-14
10
310.00000000000006
20
4.0000000000000266
10
305.00000000000006
20
4.0000000000000178
10
305.00000000000006
20
2.6645352591003757e-14
10
300.00000000000006
20
8.8817841970013281e-15
10
300.00000000000006
20
4.0000000000000266
10
295.00000000000006
20
4.0000000000000204
10
295.00000000000006
20
2.6645352591003757e-14
10
290.00000000000006
20
2.6645352591003826e-14
10
290.00000000000006
20
4.0000000000000302
10
285.00000000000006
20
4.0000000000000222
10
285.00000000000006
20
2.6645352591003757e-14
10
280.00000000000006
20
2.6645352591003826e-14
10
280.00000000000006
20
4.0000000000000266
10
275.00000000000006
20
4.0000000000000249
10
275.00000000000006
20
2.6645352591003757e-14
10
270.00000000000006
20
2.6645352591003823e-14
10
270.00000000000006
20
4.0000000000000266
10
265.00000000000006
20
4.0000000000000266
10
265.00000000000006
20
2.6645352591003757e-14
10
260.00000000000006
20
3.5527136788005072e-14
10
260.00000000000006
20
4.0000000000000266
10
255.00000000000006
20
4.0000000000000293
10
255.00000000000006
20
2.6645352591003757e-14
10
250.00000000000006
20
2.664535259100382e-14
10
250.00000000000006
20
4.0000000000000266
10
245.00000000000006
20
4.0000000000000311
10
245.00000000000006
20
2.6645352591003757e-14
10
236.00000000000009
20
1.8041124150158857e-14
10
236.00000000000009
20
-4.9999999999999813
10
240.00000000000006
20
-4.9999999999999822
10
240.00000000000006
20
-9.9999999999999822
10
236.00000000000009
20
-9.9999999999999822
10
236.00000000000009
20
-14.999999999999982
10
240.00000000000006
20
-14.999999999999982
10
240.00000000000006
20
-19.999999999999982
10
236.00000000000009
20
-19.999999999999982
10
236.00000000000009
20
-24.999999999999982
10
240.00000000000006
20
-24.999999999999982
10
240.00000000000006
20
-29.999999999999982
10
236.00000000000009
20
-29.999999999999982
10
236.00000000000009
20
-34.999999999999986
10
240.00000000000006
20
-34.999999999999986
10
240.00000000000006
20
-39.999999999999986
10
236.00000000000009
20
-39.999999999999986
10
236.00000000000009
20
-44.999999999999986
10
240.00000000000006
20
-44.999999999999986
10
240.00000000000006
20
-49.999999999999986
10
236.00000000000009
20
-49.999999999999986
0
LWPOLYLINE
5
101
100
AcDbEntity
8
0
100
AcDbPolyline
90
156
70
1
43
0.0
10
240.00000000000006
20
-59.999999999999986
10
240.00000000000006
20
-54.999999999999986
10
236.00000000000009
20
-54.999999999999986
10
236.00000000000009
20
-49.999999999999986
10
240.00000000000006
20
-49.999999999999986
10
240.00000000000006
20
-44.999999999999986
10
236.00000000000009
20
-44.999999999999986
10
236.00000000000009
20
-39.999999999999986
10
240.00000000000006
20
-39.999999999999986
10
240.00000000000006
20
-34.999999999999986
10
236.00000000000009
20
-34.999999999999986
10
236.00000000000009
20
-29.999999999999982
10
240.00000000000006
20
-29.999999999999982
10
240.00000000000006
20
-24.999999999999982
10
236.00000000000009
20
-24.999999999999982
10
236.00000000000009
20
-19.999999999999982
10
240.00000000000006
20
-19.999999999999982
10
240.00000000000006
20
-14.999999999999982
10
236.00000000000009
20
-14.999999999999982
10
236.00000000000009
20
-9.9999999999999822
10
240.00000000000006
20
-9.9999999999999822
10
240.00000000000006
20
-4.9999999999999822
10
236.00000000000009
20
-4.9999999999999822
10
236.00000000000009
20
1.7763568394002565e-14
10
245.00000000000006
20
2.664535259100382e-14
10
245.00000000000006
20
4.0000000000000311
10
250.00000000000006
20
4.0000000000000266
10
250.00000000000006
20
1.7763568394002568e-14
10
255.00000000000006
20
2.664535259100382e-14
10
255.00000000000006
20
4.0000000000000293
10
260.00000000000006
20
4.0000000000000266
10
260.00000000000006
20
1.7763568394002568e-14
10
265.00000000000006
20
2.664535259100382e-14
10
265.00000000000006
20
4.0000000000000266
10
270.00000000000006
20
4.0000000000000266
10
270.00000000000006
20
1.7763568394002571e-14
10
275.00000000000006
20
2.6645352591003823e-14
10
275.00000000000006
20
4.0000000000000249
10
280.00000000000006
20
4.0000000000000266
10
280.00000000000006
20
1.7763568394002574e-14
10
285.00000000000006
20
2.6645352591003826e-14
10
285.00000000000006
20
4.0000000000000222
10
290.00000000000006
20
4.0000000000000302
10
290.00000000000006
20
1.7763568394002574e-14
10
295.00000000000006
20
2.6645352591003826e-14
10
295.00000000000006
20
4.0000000000000204
10
300.00000000000006
20
4.0000000000000266
10
300.00000000000006
20
1.776356839400258e-14
10
305.00000000000006
20
2.6645352591003833e-14
10
305.00000000000006
20
4.0000000000000178
10
310.00000000000006
20
4.0000000000000266
10
310.00000000000006
20
1.776356839400258e-14
10
315.00000000000006
20
2.6645352591003836e-14
10
315.00000000000006
20
4.000000000000016
10
320.00000000000006
20
4.0000000000000266
10
320.00000000000006
20
1.7763568394002584e-14
10
325.00000000000006
20
2.6645352591003836e-14
10
325.00000000000006
20
4.0000000000000133
10
330.00000000000006
20
4.0000000000000266
10
330.00000000000006
20
1.7763568394002587e-14
10
335.00000000000006
20
2.6645352591003839e-14
10
335.00000000000006
20
4.0000000000000115
10
340.00000000000006
20
4.0000000000000178
10
340.00000000000006
20
-4.9999999999999725
10
344.00000000000011
20
-4.9999999999999734
10
344.00000000000006
20
-9.9999999999999822
10
340.00000000000006
20
-9.9999999999999751
10
340.00000000000006
20
-14.999999999999968
10
344.00000000000011
20
-14.999999999999979
10
344.00000000000006
20
-19.999999999999975
10
340.00000000000006
20
-19.999999999999982
10
340.00000000000006
20
-24.999999999999964
10
344.00000000000006
20
-24.999999999999972
10
344.00000000000011
20
-29.999999999999972
10
340.00000000000006
20
-29.999999999999972
10
340.00000000000006
20
-34.999999999999972
10
344.00000000000011
20
-34.999999999999972
10
344.00000000000011
20
-39.999999999999972
10
340.00000000000006
20
-39.999999999999972
10
340.00000000000006
20
-44.999999999999972
10
344.00000000000011
20
-44.999999999999972
10
344.00000000000011
20
-49.999999999999972
10
340.00000000000006
20
-49.999999999999972
10
340.00000000000006
20
-54.999999999999972
10
344.00000000000011
20
-54.999999999999972
10
344.00000000000006
20
-59.999999999999972
10
340.00000000000006
20
-59.999999999999972
10
340.00000000000006
20
-64.999999999999972
10
344.00000000000011
20
-64.999999999999972
10
344.00000000000011
20
-69.999999999999972
10
340.00000000000006
20
-69.999999999999986
10
340.00000000000006
20
-74.999999999999972
10
344.00000000000006
20
-74.999999999999972
10
344.00000000000011
20
-79.999999999999986
10
340.00000000000006
20
-79.999999999999986
10
340.00000000000006
20
-84.999999999999972
10
344.00000000000011
20
-84.999999999999972
10
344.00000000000011
20
-89.999999999999986
10
340.00000000000006
20
-89.999999999999986
10
340.00000000000006
20
-94.999999999999972
10
344.00000000000011
20
-94.999999999999972
10
344.00000000000006
20
-99.999999999999986
10
335.00000000000006
20
-100.00000000000001
10
335.00000000000006
20
-103.99999999999999
10
330.00000000000006
20
-103.99999999999999
10
330.00000000000006
20
-99.999999999999986
10
325.00000000000006
20
-99.999999999999986
10
325.00000000000006
20
-103.99999999999997
10
320.00000000000006
20
-103.99999999999999
10
320.00000000000006
20
-99.999999999999986
10
315.00000000000006
20
-100
10
315.00000000000006
20
-103.99999999999999
10
310.00000000000006
20
-103.99999999999997
10
310.00000000000006
20
-99.999999999999986
10
305.00000000000011
20
-100
10
305.00000000000006
20
-103.99999999999997
10
300.00000000000006
20
-103.99999999999999
10
300.00000000000006
20
-99.999999999999986
10
295.00000000000006
20
-99.999999999999986
10
295.00000000000006
20
-103.99999999999997
10
290.00000000000006
20
-103.99999999999999
10
290.00000000000006
20
-99.999999999999986
10
285.00000000000006
20
-99.999999999999986
10
285.00000000000006
20
-103.99999999999997
10
280.00000000000006
20
-103.99999999999999
10
280.00000000000006
20
-99.999999999999986
10
275.00000000000006
20
-100
10
275.00000000000006
20
-103.99999999999997
10
270.00000000000006
20
-104
10
270.00000000000006
20
-99.999999999999986
10
265.00000000000006
20
-100
10
265.00000000000006
20
-103.99999999999999
10
260.00000000000006
20
-104
10
260.00000000000006
20
-99.999999999999986
10
255.00000000000006
20
-99.999999999999986
10
255.00000000000006
20
-104
10
250.00000000000006
20
-103.99999999999997
10
250.00000000000006
20
-99.999999999999986
10
245.00000000000006
20
-99.999999999999986
10
245.00000000000006
20
-104.00000000000003
10
240.00000000000006
20
-104
10
240.00000000000006
20
-94.999999999999986
10
236.00000000000009
20
-94.999999999999986
10
236.00000000000009
20
-89.999999999999986
10
240.00000000000006
20
-89.999999999999986
10
240.00000000000006
20
-84.999999999999986
10
236.00000000000009
20
-84.999999999999986
10
236.00000000000009
20
-79.999999999999986
10
240.00000000000006
20
-79.999999999999986
10
240.00000000000006
20
-74.999999999999986
10
236.00000000000009
20
-74.999999999999986
10
236.00000000000009
20
-69.999999999999986
10
240.00000000000006
20
-69.999999999999986
10
240.00000000000006
20
-64.999999999999986
10
236.00000000000009
20
-64.999999999999986
10
236.00000000000009
20
-59.999999999999986
0
ENDSEC
0
SECTION
2
OBJECTS
0
DICTIONARY
5
C
100
AcDbDictionary
3
ACAD_GROUP
350
D
3
ACAD_MLINESTYLE
350
17
0
DICTIONARY
5
D
100
AcDbDictionary
0
DICTIONARY
5
1A
330
C
100
AcDbDictionary
0
DICTIONARY
5
17
100
AcDbDictionary
0
ENDSEC
0
EOF
