0
SECTION
2
HEADER
9
$INSUNITS
70
4
9
$ACADVER
1
AC1014
9
$HANDSEED
5
FFFF
0
ENDSEC
0
SECTION
2
TABLES
0
TABLE
2
VPORT
5
8
100
AcDbSymbolTable
0
ENDTAB
0
TABLE
2
LTYPE
5
5
100
AcDbSymbolTable
0
LTYPE
5
14
100
AcDbSymbolTableRecord
100
AcDbLinetypeTableRecord
2
BYBLOCK
70
0
0
LTYPE
5
15
100
AcDbSymbolTableRecord
100
AcDbLinetypeTableRecord
2
BYLAYER
70
0
0
ENDTAB
0
TABLE
2
LAYER
5
2
100
AcDbSymbolTable
70
2
0
LAYER
5
50
100
AcDbSymbolTableRecord
100
AcDbLayerTableRecord
2
0
70
0
6
CONTINUOUS
0
ENDTAB
0
TABLE
2
STYLE
5
3
100
AcDbSymbolTable
70
1
0
STYLE
5
11
100
AcDbSymbolTableRecord
100
AcDbTextStyleTableRecord
2
STANDARD
70
0
0
ENDTAB
0
TABLE
2
VIEW
5
6
100
AcDbSymbolTable
70
0
0
ENDTAB
0
TABLE
2
UCS
5
7
100
AcDbSymbolTable
70
0
0
ENDTAB
0
TABLE
2
APPID
5
9
100
AcDbSymbolTable
70
2
0
APPID
5
12
100
AcDbSymbolTableRecord
100
AcDbRegAppTableRecord
2
ACAD
70
0
0
ENDTAB
0
TABLE
2
DIMSTYLE
5
A
100
AcDbSymbolTable
70
1
0
ENDTAB
0
TABLE
2
BLOCK_RECORD
5
1
100
AcDbSymbolTable
70
1
0
BLOCK_RECORD
5
1F
100
AcDbSymbolTableRecord
100
AcDbBlockTableRecord
2
*MODEL_SPACE
0
BLOCK_RECORD
5
1B
100
AcDbSymbolTableRecord
100
AcDbBlockTableRecord
2
*PAPER_SPACE
0
ENDTAB
0
ENDSEC
0
SECTION
2
BLOCKS
0
BLOCK
5
20
100
AcDbEntity
100
AcDbBlockBegin
2
*MODEL_SPACE
0
ENDBLK
5
21
100
AcDbEntity
100
AcDbBlockEnd
0
BLOCK
5
1C
100
AcDbEntity
100
AcDbBlockBegin
2
*PAPER_SPACE
0
ENDBLK
5
1D
100
AcDbEntity
100
AcDbBlockEnd
0
ENDSEC
0
SECTION
2
ENTITIES
0
LWPOLYLINE
5
100
100
AcDbEntity
8
0
100
AcDbPolyline
90
156
70
1
43
0.0
10
236
20
-55.024999999999991
10
240
20
-55.024999999999991
10
240.00000000000006
20
-59.999999999999986
10
236.00000000000009
20
-59.999999999999986
10
236
20
-65.024999999999991
10
240
20
-65.024999999999991
10
240.00000000000006
20
-69.999999999999986
10
236.00000000000009
20
-69.999999999999986
10
236
20
-75.024999999999991
10
240
20
-75.024999999999991
10
240.00000000000006
20
-79.999999999999986
10
236.00000000000009
20
-79.999999999999986
10
236
20
-85.024999999999991
10
240
20
-85.024999999999991
10
240.00000000000006
20
-89.999999999999986
10
236.00000000000009
20
-89.999999999999986
10
236
20
-95.024999999999991
10
240
20
-95.024999999999991
10
240
20
-104.02500000000002
10
245.02499999999998
20
-104.02500000000002
10
245.02499999999998
20
-100.02499999999999
10
250
20
-100.02499999999999
10
250
20
-104.02500000000002
10
255.02499999999998
20
-104.02500000000002
10
255.02499999999998
20
-100.02499999999999
10
260
20
-100.02499999999999
10
260
20
-104.02500000000002
10
265.02499999999998
20
-104.02500000000002
10
265.02499999999998
20
-100.02499999999999
10
270
20
-100.02499999999999
10
270
20
-104.02500000000001
10
275.02499999999998
20
-104.02500000000001
10
275.02499999999998
20
-100.02499999999999
10
280
20
-100.02499999999999
10
280
20
-104.02500000000002
10
285.02499999999998
20
-104.02500000000002
10
285.02499999999998
20
-100.02499999999999
10
290
20
-100.02499999999999
10
290
20
-104.02500000000002
10
295.02499999999998
20
-104.02500000000002
10
295.02499999999998
20
-100.02499999999999
10
300
20
-100.02499999999999
10
300
20
-104.02500000000002
10
305.02499999999998
20
-104.02500000000001
10
305.02500000000003
20
-100.02499999999999
10
310
20
-100.02499999999999
10
310
20
-104.02500000000001
10
315.02500000000003
20
-104.02500000000001
10
315.02500000000003
20
-100.02499999999999
10
320
20
-100.02499999999999
10
320
20
-104.02500000000001
10
325.02499999999998
20
-104.02500000000002
10
325.02499999999998
20
-100.02499999999999
10
330
20
-100.02499999999999
10
330
20
-104.02499999999998
10
335.02499999999998
20
-104.02500000000001
10
335.02499999999998
20
-100.02499999999999
10
344.02500000000003
20
-100.02500000000003
10
344.02500000000003
20
-95
10
340.02499999999998
20
-95.000000000000014
10
340.02499999999998
20
-90.025000000000034
10
344.02500000000003
20
-90.025000000000006
10
344.02500000000003
20
-85
10
340.02499999999998
20
-85.000000000000014
10
340.02499999999998
20
-80.025000000000006
10
344.02499999999998
20
-80.025000000000006
10
344.02500000000003
20
-75.000000000000014
10
340.02499999999998
20
-75.000000000000014
10
340.02499999999998
20
-70.025000000000006
10
344.02499999999998
20
-70.025000000000006
10
344.02500000000003
20
-64.999999999999986
10
340.02499999999998
20
-65.000000000000014
10
340.02499999999998
20
-60.025000000000006
10
344.02499999999998
20
-60.025000000000006
10
344.02500000000003
20
-55.000000000000007
10
340.02499999999998
20
-55.000000000000007
10
340.02499999999998
20
-50.025000000000006
10
344.02500000000003
20
-50.025000000000006
10
344.02500000000003
20
-45.000000000000007
10
340.02499999999998
20
-45.000000000000007
10
340.02499999999998
20
-40.025000000000006
10
344.02499999999998
20
-40.025000000000006
10
344.02500000000003
20
-35.000000000000007
10
340.02499999999998
20
-35.000000000000007
10
340.02499999999998
20
-30.025000000000013
10
344.02499999999998
20
-30.025000000000006
10
344.02500000000003
20
-25.000000000000007
10
340.02499999999998
20
-25.000000000000004
10
340.02499999999998
20
-20.025000000000009
10
344.02500000000003
20
-20.025000000000006
10
344.02500000000003
20
-15.000000000000018
10
340.02499999999998
20
-15.000000000000018
10
340.02499999999998
20
-10.024999999999995
10
344.02499999999998
20
-10.025000000000013
10
344.02500000000003
20
-5
10
340.02499999999998
20
-5.0000000000000089
10
340.02499999999998
20
3.9999999999999911
10
335.00000000000006
20
4.0000000000000115
10
335.00000000000006
20
2.6645352591003757e-14
10
330.02499999999998
20
0
10
330.02499999999998
20
3.9999999999999947
10
325.00000000000006
20
4.0000000000000133
10
325.00000000000006
20
2.6645352591003757e-14
10
320.02499999999998
20
0
10
320.02499999999998
20
3.9999999999999858
10
315.00000000000006
20
4.000000000000016
10
315.00000000000006
20
2.6645352591003757e-14
10
310.02499999999998
20
0
10
310.02500000000003
20
3.9999999999999858
10
305.00000000000006
20
4.0000000000000178
10
305.00000000000006
20
2.6645352591003757e-14
10
300.02500000000003
20
0
10
300.02500000000003
20
3.9999999999999911
10
295.00000000000006
20
4.0000000000000204
10
295.00000000000006
20
2.6645352591003757e-14
10
290.02500000000003
20
0
10
290.02500000000003
20
3.9999999999999911
10
285.00000000000006
20
4.0000000000000222
10
285.00000000000006
20
2.6645352591003757e-14
10
280.02499999999998
20
0
10
280.02500000000003
20
3.9999999999999858
10
275.00000000000006
20
4.0000000000000249
10
275.00000000000006
20
2.6645352591003757e-14
10
270.02499999999998
20
0
10
270.02499999999998
20
3.9999999999999885
10
265.00000000000006
20
4.0000000000000266
10
265.00000000000006
20
2.6645352591003757e-14
10
260.02500000000003
20
0
10
260.02499999999998
20
3.9999999999999911
10
255.00000000000006
20
4.0000000000000293
10
255.00000000000006
20
2.6645352591003757e-14
10
250.02499999999998
20
0
10
250.02500000000001
20
3.9999999999999858
10
245.00000000000006
20
4.0000000000000311
10
245.00000000000006
20
2.6645352591003757e-14
10
236.00000000000009
20
1.8041124150158857e-14
10
236
20
-5.0249999999999995
10
240
20
-5.0249999999999995
10
240.00000000000006
20
-9.9999999999999822
10
236.00000000000009
20
-9.9999999999999822
10
236
20
-15.024999999999999
10
240
20
-15.024999999999999
10
240.00000000000006
20
-19.999999999999982
10
236.00000000000009
20
-19.999999999999982
10
236
20
-25.024999999999999
10
240
20
-25.024999999999999
10
240.00000000000006
20
-29.999999999999982
10
236.00000000000009
20
-29.999999999999982
10
236
20
-35.024999999999999
10
240
20
-35.024999999999999
10
240.00000000000006
20
-39.999999999999986
10
236.00000000000009
20
-39.999999999999986
10
236
20
-45.024999999999991
10
240
20
-45.024999999999991
10
240.00000000000006
20
-49.999999999999986
10
236.00000000000009
20
-49.999999999999986
0
LWPOLYLINE
5
101
100
AcDbEntity
8
0
100
AcDbPolyline
90
156
70
1
43
0.0
10
240.00000000000006
20
-59.999999999999986
10
240
20
-55.024999999999991
10
236
20
-55.024999999999991
10
236.00000000000009
20
-49.999999999999986
10
240.00000000000006
20
-49.999999999999986
10
240
20
-45.024999999999991
10
236
20
-45.024999999999991
10
236.00000000000009
20
-39.999999999999986
10
240.00000000000006
20
-39.999999999999986
10
240
20
-35.024999999999999
10
236
20
-35.024999999999999
10
236.00000000000009
20
-29.999999999999982
10
240.00000000000006
20
-29.999999999999982
10
240
20
-25.024999999999999
10
236
20
-25.024999999999999
10
236.00000000000009
20
-19.999999999999982
10
240.00000000000006
20
-19.999999999999982
10
240
20
-15.024999999999999
10
236
20
-15.024999999999999
10
236.00000000000009
20
-9.9999999999999822
10
240.00000000000006
20
-9.9999999999999822
10
240
20
-5.0249999999999995
10
236
20
-5.0249999999999995
10
236.00000000000009
20
1.7763568394002565e-14
10
245.00000000000006
20
2.664535259100382e-14
10
245.00000000000006
20
4.0000000000000311
10
250.02500000000001
20
3.9999999999999858
10
250.02500000000001
20
0
10
255.00000000000006
20
2.664535259100382e-14
10
255.00000000000006
20
4.0000000000000293
10
260.02499999999998
20
3.9999999999999911
10
260.02500000000003
20
0
10
265.00000000000006
20
2.664535259100382e-14
10
265.00000000000006
20
4.0000000000000266
10
270.02499999999998
20
3.9999999999999885
10
270.02499999999998
20
0
10
275.00000000000006
20
2.6645352591003823e-14
10
275.00000000000006
20
4.0000000000000249
10
280.02500000000003
20
3.9999999999999858
10
280.02499999999998
20
0
10
285.00000000000006
20
2.6645352591003826e-14
10
285.00000000000006
20
4.0000000000000222
10
290.02500000000003
20
3.9999999999999911
10
290.02500000000003
20
0
10
295.00000000000006
20
2.6645352591003826e-14
10
295.00000000000006
20
4.0000000000000204
10
300.02500000000003
20
3.9999999999999911
10
300.02500000000003
20
0
10
305.00000000000006
20
2.6645352591003833e-14
10
305.00000000000006
20
4.0000000000000178
10
310.02500000000003
20
3.9999999999999858
10
310.02499999999998
20
0
10
315.00000000000006
20
2.6645352591003836e-14
10
315.00000000000006
20
4.000000000000016
10
320.02499999999998
20
3.9999999999999858
10
320.02499999999998
20
0
10
325.00000000000006
20
2.6645352591003836e-14
10
325.00000000000006
20
4.0000000000000133
10
330.02499999999998
20
3.9999999999999947
10
330.02499999999998
20
0
10
335.00000000000006
20
2.6645352591003839e-14
10
335.00000000000006
20
4.0000000000000115
10
340.02499999999998
20
3.9999999999999911
10
340.02499999999998
20
-5.0000000000000089
10
344.02500000000003
20
-5
10
344.02499999999998
20
-10.025000000000013
10
340.02499999999998
20
-10.024999999999995
10
340.02499999999998
20
-15.000000000000018
10
344.02500000000003
20
-15.000000000000018
10
344.02500000000003
20
-20.025000000000006
10
340.02499999999998
20
-20.025000000000009
10
340.02499999999998
20
-25.000000000000004
10
344.02500000000003
20
-25.000000000000007
10
344.02499999999998
20
-30.025000000000006
10
340.02499999999998
20
-30.025000000000013
10
340.02499999999998
20
-35.000000000000007
10
344.02500000000003
20
-35.000000000000007
10
344.02499999999998
20
-40.025000000000006
10
340.02499999999998
20
-40.025000000000006
10
340.02499999999998
20
-45.000000000000007
10
344.02500000000003
20
-45.000000000000007
10
344.02500000000003
20
-50.025000000000006
10
340.02499999999998
20
-50.025000000000006
10
340.02499999999998
20
-55.000000000000007
10
344.02500000000003
20
-55.000000000000007
10
344.02499999999998
20
-60.025000000000006
10
340.02499999999998
20
-60.025000000000006
10
340.02499999999998
20
-65.000000000000014
10
344.02500000000003
20
-64.999999999999986
10
344.02499999999998
20
-70.025000000000006
10
340.02499999999998
20
-70.025000000000006
10
340.02499999999998
20
-75.000000000000014
10
344.02500000000003
20
-75.000000000000014
10
344.02499999999998
20
-80.025000000000006
10
340.02499999999998
20
-80.025000000000006
10
340.02499999999998
20
-85.000000000000014
10
344.02500000000003
20
-85
10
344.02500000000003
20
-90.025000000000006
10
340.02499999999998
20
-90.025000000000034
10
340.02499999999998
20
-95.000000000000014
10
344.02500000000003
20
-95
10
344.02500000000003
20
-100.02500000000003
10
335.02499999999998
20
-100.02499999999999
10
335.02499999999998
20
-104.02500000000001
10
330
20
-104.02499999999998
10
330
20
-100.02499999999999
10
325.02499999999998
20
-100.02499999999999
10
325.02499999999998
20
-104.02500000000002
10
320
20
-104.02500000000001
10
320
20
-100.02499999999999
10
315.02500000000003
20
-100.02499999999999
10
315.02500000000003
20
-104.02500000000001
10
310
20
-104.02500000000001
10
310
20
-100.02499999999999
10
305.02500000000003
20
-100.02499999999999
10
305.02499999999998
20
-104.02500000000001
10
300
20
-104.02500000000002
10
300
20
-100.02499999999999
10
295.02499999999998
20
-100.02499999999999
10
295.02499999999998
20
-104.02500000000002
10
290
20
-104.02500000000002
10
290
20
-100.02499999999999
10
285.02499999999998
20
-100.02499999999999
10
285.02499999999998
20
-104.02500000000002
10
280
20
-104.02500000000002
10
280
20
-100.02499999999999
10
275.02499999999998
20
-100.02499999999999
10
275.02499999999998
20
-104.02500000000001
10
270
20
-104.02500000000001
10
270
20
-100.02499999999999
10
265.02499999999998
20
-100.02499999999999
10
265.02499999999998
20
-104.02500000000002
10
260
20
-104.02500000000002
10
260
20
-100.02499999999999
10
255.02499999999998
20
-100.02499999999999
10
255.02499999999998
20
-104.02500000000002
10
250
20
-104.02500000000002
10
250
20
-100.02499999999999
10
245.02499999999998
20
-100.02499999999999
10
245.02499999999998
20
-104.02500000000002
10
240
20
-104.02500000000002
10
240
20
-95.024999999999991
10
236
20
-95.024999999999991
10
236.00000000000009
20
-89.999999999999986
10
240.00000000000006
20
-89.999999999999986
10
240
20
-85.024999999999991
10
236
20
-85.024999999999991
10
236.00000000000009
20
-79.999999999999986
10
240.00000000000006
20
-79.999999999999986
10
240
20
-75.024999999999991
10
236
20
-75.024999999999991
10
236.00000000000009
20
-69.999999999999986
10
240.00000000000006
20
-69.999999999999986
10
240
20
-65.024999999999991
10
236
20
-65.024999999999991
10
236.00000000000009
20
-59.999999999999986
0
ENDSEC
0
SECTION
2
OBJECTS
0
DICTIONARY
5
C
100
AcDbDictionary
3
ACAD_GROUP
350
D
3
ACAD_MLINESTYLE
350
17
0
DICTIONARY
5
D
100
AcDbDictionary
0
DICTIONARY
5
1A
330
C
100
AcDbDictionary
0
DICTIONARY
5
17
100
AcDbDictionary
0
ENDSEC
0
EOF
