0
SECTION
2
HEADER
9
$INSUNITS
70
4
9
$ACADVER
1
AC1014
9
$HANDSEED
5
FFFF
0
ENDSEC
0
SECTION
2
TABLES
0
TABLE
2
VPORT
5
8
100
AcDbSymbolTable
0
ENDTAB
0
TABLE
2
LTYPE
5
5
100
AcDbSymbolTable
0
LTYPE
5
14
100
AcDbSymbolTableRecord
100
AcDbLinetypeTableRecord
2
BYBLOCK
70
0
0
LTYPE
5
15
100
AcDbSymbolTableRecord
100
AcDbLinetypeTableRecord
2
BYLAYER
70
0
0
ENDTAB
0
TABLE
2
LAYER
5
2
100
AcDbSymbolTable
70
2
0
LAYER
5
50
100
AcDbSymbolTableRecord
100
AcDbLayerTableRecord
2
0
70
0
6
CONTINUOUS
0
ENDTAB
0
TABLE
2
STYLE
5
3
100
AcDbSymbolTable
70
1
0
STYLE
5
11
100
AcDbSymbolTableRecord
100
AcDbTextStyleTableRecord
2
STANDARD
70
0
0
ENDTAB
0
TABLE
2
VIEW
5
6
100
AcDbSymbolTable
70
0
0
ENDTAB
0
TABLE
2
UCS
5
7
100
AcDbSymbolTable
70
0
0
ENDTAB
0
TABLE
2
APPID
5
9
100
AcDbSymbolTable
70
2
0
APPID
5
12
100
AcDbSymbolTableRecord
100
AcDbRegAppTableRecord
2
ACAD
70
0
0
ENDTAB
0
TABLE
2
DIMSTYLE
5
A
100
AcDbSymbolTable
70
1
0
ENDTAB
0
TABLE
2
BLOCK_RECORD
5
1
100
AcDbSymbolTable
70
1
0
BLOCK_RECORD
5
1F
100
AcDbSymbolTableRecord
100
AcDbBlockTableRecord
2
*MODEL_SPACE
0
BLOCK_RECORD
5
1B
100
AcDbSymbolTableRecord
100
AcDbBlockTableRecord
2
*PAPER_SPACE
0
ENDTAB
0
ENDSEC
0
SECTION
2
BLOCKS
0
BLOCK
5
20
100
AcDbEntity
100
AcDbBlockBegin
2
*MODEL_SPACE
0
ENDBLK
5
21
100
AcDbEntity
100
AcDbBlockEnd
0
BLOCK
5
1C
100
AcDbEntity
100
AcDbBlockBegin
2
*PAPER_SPACE
0
ENDBLK
5
1D
100
AcDbEntity
100
AcDbBlockEnd
0
ENDSEC
0
SECTION
2
ENTITIES
0
LWPOLYLINE
5
100
100
AcDbEntity
8
0
100
AcDbPolyline
90
156
70
1
43
0.0
10
335.00999618530273
20
-100.00999885559081
10
343.00999618530273
20
-100.00999885559081
10
343.00999618530273
20
-94.999998855590803
10
340.00999618530267
20
-94.999998855590832
10
340.00999618530273
20
-90.009998855590808
10
343.00999618530278
20
-90.009998855590808
10
343.00999618530273
20
-84.999998855590803
10
340.00999618530267
20
-84.999998855590803
10
340.00999618530273
20
-80.009998855590823
10
343.00999618530278
20
-80.009998855590823
10
343.00999618530273
20
-74.999998855590803
10
340.00999618530267
20
-74.999998855590803
10
340.00999618530273
20
-70.009998855590823
10
343.00999618530278
20
-70.009998855590823
10
343.00999618530273
20
-64.999998855590803
10
340.00999618530267
20
-64.999998855590817
10
340.00999618530273
20
-60.009998855590815
10
343.00999618530278
20
-60.009998855590823
10
343.00999618530273
20
-54.999998855590817
10
340.00999618530267
20
-54.999998855590817
10
340.00999618530273
20
-50.009998855590815
10
343.00999618530278
20
-50.009998855590815
10
343.00999618530273
20
-44.999998855590817
10
340.00999618530267
20
-44.999998855590817
10
340.00999618530273
20
-40.009998855590808
10
343.00999618530278
20
-40.009998855590815
10
343.00999618530273
20
-34.999998855590817
10
340.00999618530267
20
-34.999998855590825
10
340.00999618530273
20
-30.009998855590823
10
343.00999618530278
20
-30.009998855590815
10
343.00999618530273
20
-24.999998855590825
10
340.00999618530267
20
-24.999998855590814
10
340.00999618530273
20
-20.009998855590823
10
343.00999618530278
20
-20.009998855590815
10
343.00999618530273
20
-14.999998855590832
10
340.00999618530267
20
-14.999998855590825
10
340.00999618530273
20
-10.009998855590808
10
343.00999618530278
20
-10.009998855590823
10
343.00999618530273
20
-4.9999988555908192
10
340.00999618530267
20
-4.9999988555908104
10
340.00999618530278
20
3.0000011444092003
10
334.99999618530268
20
3.0000011444091723
10
334.99999618530268
20
1.1444091896350983e-06
10
330.00999618530273
20
1.1444091896350983e-06
10
330.00999618530273
20
3.0000011444091736
10
324.99999618530268
20
3.0000011444091572
10
324.99999618530268
20
1.1444091896350983e-06
10
320.00999618530267
20
1.1444091896350983e-06
10
320.00999618530278
20
3.0000011444091896
10
314.99999618530268
20
3.0000011444091856
10
314.99999618530273
20
1.1444091896350983e-06
10
310.00999618530273
20
1.1444091896350983e-06
10
310.00999618530273
20
3.0000011444091896
10
304.99999618530273
20
3.0000011444091723
10
304.99999618530273
20
1.1444091896350983e-06
10
300.00999618530273
20
1.1444091896350983e-06
10
300.00999618530273
20
3.0000011444091896
10
294.99999618530273
20
3.0000011444091723
10
294.99999618530273
20
1.1444091896350983e-06
10
290.00999618530273
20
1.1444091896350983e-06
10
290.00999618530273
20
3.0000011444091901
10
284.99999618530273
20
3.0000011444091697
10
284.99999618530273
20
1.1444091896350983e-06
10
280.00999618530273
20
1.1444091896350983e-06
10
280.00999618530278
20
3.0000011444091887
10
274.99999618530273
20
3.0000011444091736
10
274.99999618530273
20
1.1444091896350983e-06
10
270.00999618530273
20
1.1444091896350983e-06
10
270.00999618530273
20
3.0000011444091874
10
264.99999618530273
20
3.0000011444091701
10
264.99999618530273
20
1.1444091896350983e-06
10
260.00999618530273
20
1.1444091896350983e-06
10
260.00999618530273
20
3.0000011444091959
10
254.99999618530271
20
3.0000011444091794
10
254.99999618530271
20
1.1444091896350983e-06
10
250.00999618530273
20
1.1444091896350983e-06
10
250.00999618530273
20
3.0000011444091896
10
244.99999618530271
20
3.0000011444091723
10
244.99999618530271
20
1.1444091896350983e-06
10
236.99999618530271
20
1.1444091899116978e-06
10
236.99999618530271
20
-5.0099988555908093
10
239.99999618530271
20
-5.0099988555908093
10
239.99999618530271
20
-9.9999988555908104
10
236.99999618530271
20
-9.9999988555908104
10
236.99999618530271
20
-15.009998855590808
10
239.99999618530271
20
-15.009998855590808
10
239.99999618530271
20
-19.99999885559081
10
236.99999618530271
20
-19.99999885559081
10
236.99999618530271
20
-25.009998855590808
10
239.99999618530271
20
-25.009998855590808
10
239.99999618530271
20
-29.99999885559081
10
236.99999618530271
20
-29.99999885559081
10
236.99999618530271
20
-35.009998855590808
10
239.99999618530271
20
-35.009998855590808
10
239.99999618530271
20
-39.99999885559081
10
236.99999618530271
20
-39.99999885559081
10
236.99999618530271
20
-45.009998855590808
10
239.99999618530271
20
-45.009998855590808
10
239.99999618530271
20
-49.99999885559081
10
236.99999618530271
20
-49.99999885559081
10
236.99999618530271
20
-55.009998855590808
10
239.99999618530271
20
-55.009998855590808
10
239.99999618530271
20
-59.99999885559081
10
236.99999618530271
20
-59.99999885559081
10
236.99999618530271
20
-65.009998855590808
10
239.99999618530271
20
-65.009998855590808
10
239.99999618530271
20
-69.999998855590803
10
236.99999618530271
20
-69.999998855590803
10
236.99999618530271
20
-75.009998855590808
10
239.99999618530271
20
-75.009998855590808
10
239.99999618530271
20
-79.999998855590803
10
236.99999618530271
20
-79.999998855590803
10
236.99999618530271
20
-85.009998855590808
10
239.99999618530271
20
-85.009998855590808
10
239.99999618530271
20
-89.999998855590803
10
236.99999618530271
20
-89.999998855590803
10
236.99999618530271
20
-95.009998855590808
10
239.99999618530271
20
-95.009998855590808
10
239.99999618530271
20
-103.00999885559082
10
245.00999618530273
20
-103.00999885559082
10
245.00999618530273
20
-100.00999885559081
10
249.99999618530271
20
-100.00999885559081
10
249.99999618530271
20
-103.00999885559082
10
255.00999618530273
20
-103.00999885559082
10
255.00999618530273
20
-100.00999885559081
10
259.99999618530273
20
-100.00999885559081
10
259.99999618530273
20
-103.00999885559082
10
265.00999618530273
20
-103.00999885559081
10
265.00999618530273
20
-100.00999885559081
10
269.99999618530273
20
-100.00999885559081
10
269.99999618530273
20
-103.00999885559082
10
275.00999618530273
20
-103.00999885559082
10
275.00999618530273
20
-100.00999885559081
10
279.99999618530273
20
-100.00999885559081
10
279.99999618530273
20
-103.00999885559082
10
285.00999618530273
20
-103.00999885559082
10
285.00999618530273
20
-100.00999885559081
10
289.99999618530273
20
-100.00999885559081
10
289.99999618530273
20
-103.00999885559082
10
295.00999618530273
20
-103.00999885559082
10
295.00999618530273
20
-100.00999885559081
10
299.99999618530273
20
-100.00999885559081
10
299.99999618530273
20
-103.00999885559082
10
305.00999618530273
20
-103.00999885559082
10
305.00999618530273
20
-100.00999885559081
10
309.99999618530273
20
-100.00999885559081
10
309.99999618530273
20
-103.00999885559081
10
315.00999618530273
20
-103.00999885559079
10
315.00999618530273
20
-100.00999885559081
10
319.99999618530273
20
-100.00999885559081
10
319.99999618530273
20
-103.00999885559081
10
325.00999618530273
20
-103.00999885559081
10
325.00999618530278
20
-100.00999885559081
10
329.99999618530268
20
-100.00999885559081
10
329.99999618530268
20
-103.00999885559082
10
335.00999618530273
20
-103.00999885559081
0
LWPOLYLINE
5
101
100
AcDbEntity
8
0
100
AcDbPolyline
90
156
70
1
43
0.0
10
343.00999618530273
20
-94.999998855590803
10
343.00999618530273
20
-100.00999885559081
10
335.00999618530273
20
-100.00999885559081
10
335.00999618530273
20
-103.00999885559081
10
329.99999618530268
20
-103.00999885559082
10
329.99999618530268
20
-100.00999885559081
10
325.00999618530273
20
-100.00999885559081
10
325.00999618530273
20
-103.00999885559081
10
319.99999618530273
20
-103.00999885559081
10
319.99999618530273
20
-100.00999885559081
10
315.00999618530273
20
-100.00999885559081
10
315.00999618530273
20
-103.00999885559079
10
309.99999618530273
20
-103.00999885559081
10
309.99999618530273
20
-100.00999885559081
10
305.00999618530273
20
-100.00999885559081
10
305.00999618530273
20
-103.00999885559082
10
299.99999618530273
20
-103.00999885559082
10
299.99999618530273
20
-100.00999885559081
10
295.00999618530273
20
-100.00999885559081
10
295.00999618530273
20
-103.00999885559082
10
289.99999618530273
20
-103.00999885559082
10
289.99999618530273
20
-100.00999885559081
10
285.00999618530273
20
-100.00999885559081
10
285.00999618530273
20
-103.00999885559082
10
279.99999618530273
20
-103.00999885559082
10
279.99999618530273
20
-100.00999885559081
10
275.00999618530273
20
-100.00999885559081
10
275.00999618530273
20
-103.00999885559082
10
269.99999618530273
20
-103.00999885559082
10
269.99999618530273
20
-100.00999885559081
10
265.00999618530273
20
-100.00999885559081
10
265.00999618530273
20
-103.00999885559081
10
259.99999618530273
20
-103.00999885559082
10
259.99999618530273
20
-100.00999885559081
10
255.00999618530273
20
-100.00999885559081
10
255.00999618530273
20
-103.00999885559082
10
249.99999618530271
20
-103.00999885559082
10
249.99999618530271
20
-100.00999885559081
10
245.00999618530273
20
-100.00999885559081
10
245.00999618530273
20
-103.00999885559082
10
239.99999618530271
20
-103.00999885559082
10
239.99999618530273
20
-95.009998855590808
10
236.99999618530271
20
-95.009998855590808
10
236.99999618530271
20
-89.999998855590803
10
239.99999618530271
20
-89.999998855590803
10
239.99999618530273
20
-85.009998855590808
10
236.99999618530271
20
-85.009998855590808
10
236.99999618530271
20
-79.999998855590803
10
239.99999618530271
20
-79.999998855590803
10
239.99999618530273
20
-75.009998855590808
10
236.99999618530271
20
-75.009998855590808
10
236.99999618530271
20
-69.999998855590803
10
239.99999618530271
20
-69.999998855590803
10
239.99999618530273
20
-65.009998855590808
10
236.99999618530271
20
-65.009998855590808
10
236.99999618530271
20
-59.99999885559081
10
239.99999618530271
20
-59.99999885559081
10
239.99999618530273
20
-55.009998855590808
10
236.99999618530271
20
-55.009998855590808
10
236.99999618530271
20
-49.99999885559081
10
239.99999618530271
20
-49.99999885559081
10
239.99999618530273
20
-45.009998855590808
10
236.99999618530271
20
-45.009998855590808
10
236.99999618530271
20
-39.99999885559081
10
239.99999618530271
20
-39.99999885559081
10
239.99999618530273
20
-35.009998855590808
10
236.99999618530271
20
-35.009998855590808
10
236.99999618530271
20
-29.99999885559081
10
239.99999618530271
20
-29.99999885559081
10
239.99999618530273
20
-25.009998855590808
10
236.99999618530271
20
-25.009998855590808
10
236.99999618530271
20
-19.99999885559081
10
239.99999618530271
20
-19.99999885559081
10
239.99999618530273
20
-15.009998855590808
10
236.99999618530271
20
-15.009998855590808
10
236.99999618530271
20
-9.9999988555908104
10
239.99999618530271
20
-9.9999988555908104
10
239.99999618530273
20
-5.0099988555908093
10
236.99999618530271
20
-5.0099988555908093
10
236.99999618530271
20
1.1444091899116978e-06
10
244.99999618530271
20
1.1444091896350983e-06
10
244.99999618530271
20
3.0000011444091723
10
250.00999618530273
20
3.0000011444091896
10
250.00999618530273
20
1.1444091896350983e-06
10
254.99999618530271
20
1.1444091896350983e-06
10
254.99999618530271
20
3.0000011444091794
10
260.00999618530273
20
3.0000011444091959
10
260.00999618530273
20
1.1444091896350983e-06
10
264.99999618530273
20
1.1444091896350983e-06
10
264.99999618530273
20
3.0000011444091701
10
270.00999618530273
20
3.0000011444091874
10
270.00999618530273
20
1.1444091896350983e-06
10
274.99999618530273
20
1.1444091896350983e-06
10
274.99999618530273
20
3.0000011444091736
10
280.00999618530278
20
3.0000011444091887
10
280.00999618530273
20
1.1444091896350983e-06
10
284.99999618530273
20
1.1444091896350983e-06
10
284.99999618530273
20
3.0000011444091697
10
290.00999618530273
20
3.0000011444091901
10
290.00999618530273
20
1.1444091896350983e-06
10
294.99999618530273
20
1.1444091896350983e-06
10
294.99999618530273
20
3.0000011444091723
10
300.00999618530273
20
3.0000011444091896
10
300.00999618530273
20
1.1444091896350983e-06
10
304.99999618530273
20
1.1444091896350983e-06
10
304.99999618530273
20
3.0000011444091723
10
310.00999618530273
20
3.0000011444091896
10
310.00999618530273
20
1.1444091896350983e-06
10
314.99999618530273
20
1.1444091896350983e-06
10
314.99999618530273
20
3.0000011444091856
10
320.00999618530273
20
3.0000011444091896
10
320.00999618530273
20
1.1444091896350983e-06
10
324.99999618530268
20
1.1444091896350983e-06
10
324.99999618530268
20
3.0000011444091572
10
330.00999618530273
20
3.0000011444091736
10
330.00999618530273
20
1.1444091896350983e-06
10
334.99999618530268
20
1.1444091896350983e-06
10
334.99999618530268
20
3.0000011444091723
10
340.00999618530273
20
3.0000011444092003
10
340.00999618530273
20
-4.9999988555908104
10
343.00999618530273
20
-4.9999988555908192
10
343.00999618530273
20
-10.009998855590823
10
340.00999618530273
20
-10.009998855590808
10
340.00999618530273
20
-14.999998855590825
10
343.00999618530273
20
-14.999998855590832
10
343.00999618530273
20
-20.009998855590815
10
340.00999618530273
20
-20.009998855590823
10
340.00999618530273
20
-24.999998855590814
10
343.00999618530273
20
-24.999998855590825
10
343.00999618530273
20
-30.009998855590815
10
340.00999618530273
20
-30.009998855590823
10
340.00999618530273
20
-34.999998855590825
10
343.00999618530273
20
-34.999998855590817
10
343.00999618530273
20
-40.009998855590815
10
340.00999618530273
20
-40.009998855590808
10
340.00999618530273
20
-44.999998855590817
10
343.00999618530273
20
-44.999998855590817
10
343.00999618530273
20
-50.009998855590815
10
340.00999618530273
20
-50.009998855590815
10
340.00999618530273
20
-54.999998855590817
10
343.00999618530273
20
-54.999998855590817
10
343.00999618530273
20
-60.009998855590823
10
340.00999618530273
20
-60.009998855590815
10
340.00999618530273
20
-64.999998855590817
10
343.00999618530273
20
-64.999998855590803
10
343.00999618530273
20
-70.009998855590823
10
340.00999618530273
20
-70.009998855590823
10
340.00999618530273
20
-74.999998855590803
10
343.00999618530273
20
-74.999998855590803
10
343.00999618530273
20
-80.009998855590823
10
340.00999618530273
20
-80.009998855590823
10
340.00999618530273
20
-84.999998855590803
10
343.00999618530273
20
-84.999998855590803
10
343.00999618530273
20
-90.009998855590808
10
340.00999618530273
20
-90.009998855590808
10
340.00999618530273
20
-94.999998855590832
0
ENDSEC
0
SECTION
2
OBJECTS
0
DICTIONARY
5
C
100
AcDbDictionary
3
ACAD_GROUP
350
D
3
ACAD_MLINESTYLE
350
17
0
DICTIONARY
5
D
100
AcDbDictionary
0
DICTIONARY
5
1A
330
C
100
AcDbDictionary
0
DICTIONARY
5
17
100
AcDbDictionary
0
ENDSEC
0
EOF
