0
SECTION
2
HEADER
9
$INSUNITS
70
4
9
$ACADVER
1
AC1014
9
$HANDSEED
5
FFFF
0
ENDSEC
0
SECTION
2
TABLES
0
TABLE
2
VPORT
5
8
100
AcDbSymbolTable
0
ENDTAB
0
TABLE
2
LTYPE
5
5
100
AcDbSymbolTable
0
LTYPE
5
14
100
AcDbSymbolTableRecord
100
AcDbLinetypeTableRecord
2
BYBLOCK
70
0
0
LTYPE
5
15
100
AcDbSymbolTableRecord
100
AcDbLinetypeTableRecord
2
BYLAYER
70
0
0
ENDTAB
0
TABLE
2
LAYER
5
2
100
AcDbSymbolTable
70
2
0
LAYER
5
50
100
AcDbSymbolTableRecord
100
AcDbLayerTableRecord
2
0
70
0
6
CONTINUOUS
0
ENDTAB
0
TABLE
2
STYLE
5
3
100
AcDbSymbolTable
70
1
0
STYLE
5
11
100
AcDbSymbolTableRecord
100
AcDbTextStyleTableRecord
2
STANDARD
70
0
0
ENDTAB
0
TABLE
2
VIEW
5
6
100
AcDbSymbolTable
70
0
0
ENDTAB
0
TABLE
2
UCS
5
7
100
AcDbSymbolTable
70
0
0
ENDTAB
0
TABLE
2
APPID
5
9
100
AcDbSymbolTable
70
2
0
APPID
5
12
100
AcDbSymbolTableRecord
100
AcDbRegAppTableRecord
2
ACAD
70
0
0
ENDTAB
0
TABLE
2
DIMSTYLE
5
A
100
AcDbSymbolTable
70
1
0
ENDTAB
0
TABLE
2
BLOCK_RECORD
5
1
100
AcDbSymbolTable
70
1
0
BLOCK_RECORD
5
1F
100
AcDbSymbolTableRecord
100
AcDbBlockTableRecord
2
*MODEL_SPACE
0
BLOCK_RECORD
5
1B
100
AcDbSymbolTableRecord
100
AcDbBlockTableRecord
2
*PAPER_SPACE
0
ENDTAB
0
ENDSEC
0
SECTION
2
BLOCKS
0
BLOCK
5
20
100
AcDbEntity
100
AcDbBlockBegin
2
*MODEL_SPACE
0
ENDBLK
5
21
100
AcDbEntity
100
AcDbBlockEnd
0
BLOCK
5
1C
100
AcDbEntity
100
AcDbBlockBegin
2
*PAPER_SPACE
0
ENDBLK
5
1D
100
AcDbEntity
100
AcDbBlockEnd
0
ENDSEC
0
SECTION
2
ENTITIES
0
LWPOLYLINE
5
100
100
AcDbEntity
8
0
100
AcDbPolyline
90
164
70
1
43
0.0
10
103.01000419616628
20
-223.01000534057664
10
103.01000419616626
20
-215.00000534057662
10
100.01000419616624
20
-215.00000534057662
10
100.01000419616624
20
-210.01000534057658
10
103.01000419616626
20
-210.01000534057658
10
103.01000419616626
20
-205.00000534057662
10
100.01000419616624
20
-205.00000534057662
10
100.01000419616624
20
-200.01000534057664
10
103.01000419616625
20
-200.01000534057664
10
103.01000419616626
20
-195.00000534057662
10
100.01000419616624
20
-195.00000534057662
10
100.01000419616624
20
-190.01000534057664
10
103.01000419616625
20
-190.01000534057664
10
103.01000419616626
20
-185.00000534057662
10
100.01000419616624
20
-185.00000534057662
10
100.01000419616624
20
-180.01000534057664
10
103.01000419616626
20
-180.01000534057664
10
103.01000419616625
20
-175.00000534057662
10
100.01000419616624
20
-175.00000534057662
10
100.01000419616624
20
-170.01000534057664
10
103.01000419616626
20
-170.01000534057664
10
103.01000419616625
20
-165.00000534057662
10
100.01000419616624
20
-165.00000534057662
10
100.01000419616624
20
-160.01000534057658
10
103.01000419616625
20
-160.01000534057664
10
103.01000419616625
20
-155.00000534057662
10
100.01000419616624
20
-155.00000534057665
10
100.01000419616624
20
-150.01000534057664
10
103.01000419616625
20
-150.01000534057664
10
103.01000419616625
20
-145.00000534057665
10
100.01000419616624
20
-145.00000534057662
10
100.01000419616624
20
-140.01000534057664
10
103.01000419616625
20
-140.01000534057664
10
103.01000419616625
20
-135.00000534057665
10
100.01000419616624
20
-135.00000534057665
10
100.01000419616624
20
-130.01000534057661
10
103.01000419616626
20
-130.01000534057664
10
103.01000419616625
20
-125.00000534057662
10
100.01000419616624
20
-125.00000534057662
10
100.01000419616629
20
-120.01000534057722
10
103.01000419616629
20
-120.01000534057724
10
103.01000419616631
20
-117.00000534057665
10
95.000004196166245
20
-117.00000534057664
10
95.00000419616623
20
-120.00000534057662
10
90.01000419616625
20
-120.00000534057662
10
90.010004196166292
20
-117.00000534057664
10
85.000004196166273
20
-117.00000534057665
10
85.00000419616623
20
-120.00000534057662
10
80.010004196166236
20
-120.00000534057662
10
80.01000419616625
20
-117.00000534057662
10
75.000004196166245
20
-117.00000534057664
10
75.000004196166245
20
-120.00000534057662
10
70.010004196166264
20
-120.00000534057662
10
70.01000419616625
20
-117.00000534057662
10
65.000004196166245
20
-117.00000534057664
10
65.000004196166245
20
-120.00000534057662
10
60.01000419616625
20
-120.00000534057662
10
60.01000419616625
20
-117.00000534057662
10
55.000004196166259
20
-117.00000534057664
10
55.000004196166252
20
-120.00000534057662
10
50.01000419616625
20
-120.00000534057662
10
50.010004196166264
20
-117.00000534057662
10
45.000004196166223
20
-117.00000534057665
10
45.000004196166252
20
-120.00000534057662
10
40.01000419616625
20
-120.00000534057662
10
40.010004196166278
20
-117.00000534057662
10
35.000004196166252
20
-117.00000534057664
10
35.000004196166252
20
-120.00000534057662
10
30.01000419616625
20
-120.00000534057662
10
30.01000419616625
20
-117.00000534057664
10
25.00000419616623
20
-117.00000534057665
10
25.000004196166245
20
-120.00000534057662
10
20.010004196166257
20
-120.00000534057662
10
20.010004196166253
20
-117.00000534057662
10
15.000004196166243
20
-117.00000534057664
10
15.000004196166255
20
-120.00000534057662
10
10.010004196166246
20
-120.00000534057662
10
10.01000419616626
20
-117.00000534057662
10
5.0000041961662669
20
-117.00000534057664
10
5.00000419616625
20
-120.00000534057662
10
0.010004196166237822
20
-120.00000534057662
10
0.010004196166237822
20
-117.00000534057662
10
-2.999995803833766
20
-117.00000534057662
10
-2.9999958038337593
20
-125.01000534057661
10
4.1961662411438283e-06
20
-125.01000534057661
10
4.1961662411438325e-06
20
-130.00000534057662
10
-2.9999958038337593
20
-130.00000534057662
10
-2.9999958038337593
20
-135.01000534057661
10
4.1961662411438283e-06
20
-135.01000534057661
10
4.1961662411438334e-06
20
-140.00000534057662
10
-2.9999958038337593
20
-140.00000534057662
10
-2.9999958038337593
20
-145.01000534057661
10
4.1961662411438283e-06
20
-145.01000534057661
10
4.1961662411438334e-06
20
-150.00000534057662
10
-2.9999958038337593
20
-150.00000534057662
10
-2.9999958038337593
20
-155.01000534057661
10
4.1961662411438283e-06
20
-155.01000534057661
10
4.1961662411438334e-06
20
-160.00000534057662
10
-2.9999958038337593
20
-160.00000534057662
10
-2.9999958038337593
20
-165.01000534057658
10
4.1961662411438283e-06
20
-165.01000534057658
10
4.1961662411438342e-06
20
-170.00000534057662
10
-2.9999958038337593
20
-170.00000534057662
10
-2.9999958038337593
20
-175.01000534057658
10
4.1961662411438283e-06
20
-175.01000534057658
10
4.1961662411438342e-06
20
-180.00000534057662
10
-2.9999958038337593
20
-180.00000534057662
10
-2.9999958038337593
20
-185.01000534057658
10
4.1961662411438283e-06
20
-185.01000534057658
10
4.1961662411438351e-06
20
-190.00000534057662
10
-2.9999958038337593
20
-190.00000534057662
10
-2.9999958038337593
20
-195.01000534057658
10
4.1961662411438283e-06
20
-195.01000534057658
10
4.1961662411438351e-06
20
-200.00000534057662
10
-2.9999958038337593
20
-200.00000534057662
10
-2.9999958038337593
20
-205.01000534057658
10
4.1961662411438283e-06
20
-205.01000534057658
10
4.1961662411438351e-06
20
-210.00000534057662
10
-2.9999958038337593
20
-210.00000534057662
10
-2.9999958038337593
20
-215.01000534057658
10
4.1961662411438283e-06
20
-215.01000534057658
10
4.1961662408590338e-06
20
-220.00000534057662
10
-2.9999958038337597
20
-220.00000534057662
10
-2.9999958038337597
20
-223.01000534057664
10
5.0100041961662489
20
-223.01000534057664
10
5.0100041961662489
20
-220.01000534057658
10
10.00000419616625
20
-220.01000534057658
10
10.00000419616625
20
-223.01000534057664
10
15.01000419616625
20
-223.01000534057664
10
15.01000419616625
20
-220.01000534057658
10
20.000004196166252
20
-220.01000534057658
10
20.000004196166252
20
-223.01000534057664
10
25.010004196166253
20
-223.01000534057664
10
25.010004196166253
20
-220.01000534057658
10
30.000004196166252
20
-220.01000534057658
10
30.000004196166252
20
-223.01000534057664
10
35.01000419616625
20
-223.01000534057664
10
35.01000419616625
20
-220.01000534057658
10
40.000004196166252
20
-220.01000534057658
10
40.000004196166252
20
-223.01000534057664
10
45.010004196166243
20
-223.01000534057664
10
45.010004196166243
20
-220.01000534057658
10
50.000004196166252
20
-220.01000534057658
10
50.000004196166252
20
-223.01000534057664
10
55.010004196166243
20
-223.01000534057664
10
55.010004196166243
20
-220.01000534057658
10
60.000004196166259
20
-220.01000534057658
10
60.000004196166252
20
-223.01000534057664
10
65.01000419616625
20
-223.01000534057664
10
65.01000419616625
20
-220.01000534057658
10
70.000004196166245
20
-220.01000534057658
10
70.000004196166245
20
-223.01000534057664
10
75.01000419616625
20
-223.01000534057661
10
75.01000419616625
20
-220.01000534057658
10
80.000004196166245
20
-220.01000534057658
10
80.000004196166259
20
-223.01000534057664
10
85.010004196166236
20
-223.01000534057664
10
85.01000419616625
20
-220.01000534057658
10
90.000004196166273
20
-220.01000534057658
10
90.000004196166245
20
-223.01000534057664
10
95.01000419616625
20
-223.01000534057664
10
95.010004196166278
20
-220.01000534057658
10
100.00000419616624
20
-220.01000534057658
10
100.00000419616624
20
-223.01000534057664
0
LWPOLYLINE
5
101
100
AcDbEntity
8
0
100
AcDbPolyline
90
164
70
1
43
0.0
10
100.01000419616629
20
-120.01000534057664
10
103.01000419616629
20
-120.01000534057665
10
103.01000419616631
20
-117.00000534057665
10
95.000004196166245
20
-117.00000534057664
10
95.00000419616623
20
-120.00000534057662
10
90.01000419616625
20
-120.00000534057662
10
90.010004196166292
20
-117.00000534057664
10
85.000004196166273
20
-117.00000534057665
10
85.00000419616623
20
-120.00000534057662
10
80.010004196166236
20
-120.00000534057662
10
80.01000419616625
20
-117.00000534057662
10
75.000004196166245
20
-117.00000534057664
10
75.000004196166245
20
-120.00000534057662
10
70.010004196166264
20
-120.00000534057662
10
70.01000419616625
20
-117.00000534057662
10
65.000004196166245
20
-117.00000534057664
10
65.000004196166245
20
-120.00000534057662
10
60.01000419616625
20
-120.00000534057662
10
60.01000419616625
20
-117.00000534057662
10
55.000004196166259
20
-117.00000534057664
10
55.000004196166252
20
-120.00000534057662
10
50.01000419616625
20
-120.00000534057662
10
50.010004196166264
20
-117.00000534057662
10
45.000004196166223
20
-117.00000534057665
10
45.000004196166252
20
-120.00000534057662
10
40.01000419616625
20
-120.00000534057662
10
40.010004196166278
20
-117.00000534057662
10
35.000004196166252
20
-117.00000534057664
10
35.000004196166252
20
-120.00000534057662
10
30.01000419616625
20
-120.00000534057662
10
30.01000419616625
20
-117.00000534057664
10
25.00000419616623
20
-117.00000534057665
10
25.000004196166245
20
-120.00000534057662
10
20.010004196166257
20
-120.00000534057662
10
20.010004196166253
20
-117.00000534057662
10
15.000004196166243
20
-117.00000534057664
10
15.000004196166255
20
-120.00000534057662
10
10.010004196166246
20
-120.00000534057662
10
10.01000419616626
20
-117.00000534057662
10
5.0000041961662669
20
-117.00000534057664
10
5.00000419616625
20
-120.00000534057662
10
0.010004196166234318
20
-120.00000534057662
10
0.010004196166234318
20
-117.00000534057662
10
-2.999995803833766
20
-117.00000534057662
10
-2.9999958038337593
20
-125.01000534057661
10
4.1961662411438325e-06
20
-125.01000534057661
10
4.1961662411438283e-06
20
-130.00000534057659
10
-2.9999958038337593
20
-130.00000534057662
10
-2.9999958038337593
20
-135.01000534057661
10
4.1961662411438334e-06
20
-135.01000534057661
10
4.1961662411438283e-06
20
-140.00000534057659
10
-2.9999958038337593
20
-140.00000534057662
10
-2.9999958038337593
20
-145.01000534057661
10
4.1961662411438334e-06
20
-145.01000534057661
10
4.1961662411438283e-06
20
-150.00000534057659
10
-2.9999958038337593
20
-150.00000534057662
10
-2.9999958038337593
20
-155.01000534057661
10
4.1961662411438334e-06
20
-155.01000534057661
10
4.1961662411438283e-06
20
-160.00000534057662
10
-2.9999958038337593
20
-160.00000534057662
10
-2.9999958038337593
20
-165.01000534057658
10
4.1961662411438342e-06
20
-165.01000534057658
10
4.1961662411438283e-06
20
-170.00000534057662
10
-2.9999958038337593
20
-170.00000534057662
10
-2.9999958038337593
20
-175.01000534057658
10
4.1961662411438342e-06
20
-175.01000534057658
10
4.1961662411438283e-06
20
-180.00000534057662
10
-2.9999958038337593
20
-180.00000534057662
10
-2.9999958038337593
20
-185.01000534057658
10
4.1961662411438351e-06
20
-185.01000534057658
10
4.1961662411438283e-06
20
-190.00000534057662
10
-2.9999958038337593
20
-190.00000534057662
10
-2.9999958038337593
20
-195.01000534057658
10
4.1961662411438351e-06
20
-195.01000534057658
10
4.1961662411438283e-06
20
-200.00000534057662
10
-2.9999958038337593
20
-200.00000534057662
10
-2.9999958038337593
20
-205.01000534057658
10
4.1961662411438351e-06
20
-205.01000534057658
10
4.1961662411438283e-06
20
-210.00000534057662
10
-2.9999958038337593
20
-210.00000534057662
10
-2.9999958038337593
20
-215.01000534057658
10
4.1961662486891597e-06
20
-215.01000534057658
10
4.1961662408590338e-06
20
-220.00000534057662
10
-2.9999958038337597
20
-220.00000534057662
10
-2.9999958038337593
20
-223.01000534057664
10
5.0100041961662489
20
-223.01000534057664
10
5.0100041961662489
20
-220.01000534057658
10
10.000004196166259
20
-220.01000534057658
10
10.00000419616625
20
-223.01000534057664
10
15.01000419616625
20
-223.01000534057664
10
15.01000419616625
20
-220.01000534057658
10
20.000004196166259
20
-220.01000534057658
10
20.000004196166252
20
-223.01000534057664
10
25.010004196166253
20
-223.01000534057664
10
25.010004196166253
20
-220.01000534057658
10
30.000004196166252
20
-220.01000534057658
10
30.000004196166252
20
-223.01000534057664
10
35.01000419616625
20
-223.01000534057664
10
35.01000419616625
20
-220.01000534057664
10
40.000004196166252
20
-220.01000534057658
10
40.000004196166252
20
-223.01000534057664
10
45.010004196166243
20
-223.01000534057664
10
45.010004196166243
20
-220.01000534057664
10
50.000004196166252
20
-220.01000534057658
10
50.000004196166252
20
-223.01000534057664
10
55.010004196166243
20
-223.01000534057664
10
55.010004196166243
20
-220.01000534057658
10
60.000004196166259
20
-220.01000534057658
10
60.000004196166252
20
-223.01000534057664
10
65.01000419616625
20
-223.01000534057664
10
65.01000419616625
20
-220.01000534057658
10
70.000004196166245
20
-220.01000534057658
10
70.000004196166245
20
-223.01000534057664
10
75.01000419616625
20
-223.01000534057661
10
75.01000419616625
20
-220.01000534057658
10
80.000004196166245
20
-220.01000534057658
10
80.000004196166259
20
-223.01000534057664
10
85.010004196166236
20
-223.01000534057664
10
85.01000419616625
20
-220.01000534057658
10
90.000004196166273
20
-220.01000534057658
10
90.000004196166245
20
-223.01000534057664
10
95.01000419616625
20
-223.01000534057664
10
95.010004196166278
20
-220.01000534057658
10
100.00000419616624
20
-220.01000534057658
10
100.00000419616624
20
-223.01000534057661
10
103.01000419616628
20
-223.01000534057664
10
103.01000419616626
20
-215.00000534057662
10
100.01000419616624
20
-215.00000534057662
10
100.01000419616624
20
-210.01000534057658
10
103.01000419616626
20
-210.01000534057658
10
103.01000419616626
20
-205.00000534057662
10
100.01000419616624
20
-205.00000534057662
10
100.01000419616624
20
-200.01000534057664
10
103.01000419616625
20
-200.01000534057664
10
103.01000419616626
20
-195.00000534057662
10
100.01000419616624
20
-195.00000534057662
10
100.01000419616624
20
-190.01000534057664
10
103.01000419616625
20
-190.01000534057664
10
103.01000419616626
20
-185.00000534057662
10
100.01000419616624
20
-185.00000534057662
10
100.01000419616624
20
-180.01000534057664
10
103.01000419616626
20
-180.01000534057664
10
103.01000419616625
20
-175.00000534057662
10
100.01000419616624
20
-175.00000534057662
10
100.01000419616624
20
-170.01000534057664
10
103.01000419616626
20
-170.01000534057664
10
103.01000419616625
20
-165.00000534057662
10
100.01000419616624
20
-165.00000534057662
10
100.01000419616624
20
-160.01000534057658
10
103.01000419616625
20
-160.01000534057664
10
103.01000419616625
20
-155.00000534057662
10
100.01000419616624
20
-155.00000534057665
10
100.01000419616624
20
-150.01000534057664
10
103.01000419616625
20
-150.01000534057664
10
103.01000419616625
20
-145.00000534057665
10
100.01000419616624
20
-145.00000534057662
10
100.01000419616624
20
-140.01000534057664
10
103.01000419616625
20
-140.01000534057664
10
103.01000419616625
20
-135.00000534057665
10
100.01000419616624
20
-135.00000534057665
10
100.01000419616624
20
-130.01000534057661
10
103.01000419616626
20
-130.01000534057664
10
103.01000419616625
20
-125.00000534057662
10
100.01000419616631
20
-125.00000534057662
0
ENDSEC
0
SECTION
2
OBJECTS
0
DICTIONARY
5
C
100
AcDbDictionary
3
ACAD_GROUP
350
D
3
ACAD_MLINESTYLE
350
17
0
DICTIONARY
5
D
100
AcDbDictionary
0
DICTIONARY
5
1A
330
C
100
AcDbDictionary
0
DICTIONARY
5
17
100
AcDbDictionary
0
ENDSEC
0
EOF
